<?xml version="1.0" encoding="UTF-8" standalone="no"?>
<!DOCTYPE svg PUBLIC "-//W3C//DTD SVG 1.1//EN" "http://www.w3.org/Graphics/SVG/1.1/DTD/svg11.dtd">
<svg width="100%" height="100%" viewBox="0 0 2524 337" version="1.1" xmlns="http://www.w3.org/2000/svg" xmlns:xlink="http://www.w3.org/1999/xlink" xml:space="preserve" xmlns:serif="http://www.serif.com/" style="fill-rule:evenodd;clip-rule:evenodd;stroke-linejoin:round;stroke-miterlimit:2;">
    <g transform="matrix(0.48,0,0,0.48,-28151.4,-4162.59)">
        <g transform="matrix(1.25123,0,0,6.64323,54995.4,35.0676)">
            <g transform="matrix(1.31489,0,0,0.247654,2407.53,1226.38)">
                <g transform="matrix(243.128,0,0,243.128,356,477.589)">
                    <path d="M0.49,-0.342C0.504,-0.333 0.524,-0.331 0.547,-0.339C0.656,-0.378 0.729,-0.442 0.795,-0.517C0.865,-0.596 0.817,-0.683 0.713,-0.683C0.563,-0.683 0.345,-0.684 0.2,-0.677C0.125,-0.673 0.12,-0.577 0.208,-0.581C0.348,-0.588 0.566,-0.591 0.678,-0.59C0.704,-0.59 0.704,-0.575 0.689,-0.554C0.65,-0.5 0.574,-0.455 0.507,-0.428C0.504,-0.427 0.502,-0.425 0.499,-0.424C0.5,-0.436 0.5,-0.449 0.5,-0.461C0.501,-0.503 0.471,-0.518 0.44,-0.518C0.408,-0.518 0.381,-0.499 0.385,-0.457C0.4,-0.312 0.343,-0.147 0.175,-0.064C0.135,-0.044 0.131,-0.009 0.148,0.014C0.165,0.037 0.202,0.048 0.242,0.023C0.39,-0.07 0.465,-0.189 0.49,-0.342Z" style="fill-rule:nonzero;"/>
                </g>
                <g transform="matrix(243.128,0,0,243.128,599.128,477.589)">
                    <path d="M0.593,-0.221C0.682,-0.279 0.786,-0.362 0.846,-0.431C0.907,-0.5 0.842,-0.576 0.752,-0.577C0.586,-0.58 0.34,-0.575 0.183,-0.572C0.102,-0.57 0.109,-0.468 0.184,-0.471C0.339,-0.477 0.583,-0.481 0.708,-0.48C0.738,-0.48 0.73,-0.459 0.717,-0.446C0.671,-0.4 0.568,-0.321 0.511,-0.286C0.469,-0.315 0.425,-0.341 0.387,-0.36C0.317,-0.396 0.269,-0.31 0.324,-0.284C0.405,-0.246 0.524,-0.143 0.56,-0.086C0.579,-0.055 0.61,-0.054 0.633,-0.069C0.656,-0.084 0.67,-0.115 0.652,-0.149C0.639,-0.173 0.618,-0.197 0.593,-0.221Z" style="fill-rule:nonzero;"/>
                </g>
                <g transform="matrix(243.128,0,0,243.128,842.256,477.589)">
                    <path d="M0.682,-0.436C0.747,-0.436 0.81,-0.435 0.872,-0.433C0.942,-0.431 0.963,-0.531 0.869,-0.53C0.809,-0.53 0.745,-0.529 0.681,-0.528C0.681,-0.573 0.681,-0.617 0.682,-0.657C0.683,-0.734 0.578,-0.739 0.582,-0.656C0.583,-0.628 0.583,-0.579 0.583,-0.527C0.529,-0.526 0.476,-0.525 0.422,-0.524C0.421,-0.573 0.42,-0.618 0.418,-0.651C0.414,-0.723 0.316,-0.715 0.319,-0.647C0.321,-0.613 0.322,-0.569 0.323,-0.522C0.26,-0.521 0.197,-0.52 0.137,-0.518C0.068,-0.516 0.065,-0.421 0.143,-0.425C0.199,-0.428 0.261,-0.43 0.324,-0.432C0.324,-0.377 0.323,-0.325 0.321,-0.284C0.319,-0.251 0.345,-0.233 0.371,-0.233C0.397,-0.233 0.421,-0.251 0.422,-0.285C0.423,-0.324 0.423,-0.377 0.423,-0.434C0.476,-0.435 0.529,-0.436 0.583,-0.436L0.583,-0.413C0.583,-0.252 0.514,-0.125 0.359,-0.04C0.297,-0.006 0.337,0.086 0.417,0.04C0.601,-0.066 0.682,-0.226 0.682,-0.417L0.682,-0.436Z" style="fill-rule:nonzero;"/>
                </g>
                <g transform="matrix(243.128,0,0,243.128,1085.38,477.589)">
                    <path d="M0.817,-0.33C0.851,-0.33 0.868,-0.355 0.868,-0.379C0.868,-0.404 0.851,-0.429 0.817,-0.429L0.189,-0.429C0.155,-0.429 0.136,-0.403 0.136,-0.378C0.136,-0.354 0.153,-0.33 0.189,-0.33L0.817,-0.33Z" style="fill-rule:nonzero;"/>
                </g>
                <g transform="matrix(243.128,0,0,243.128,1328.51,477.589)">
                    <path d="M0.575,-0.339C0.674,-0.339 0.764,-0.338 0.819,-0.336C0.889,-0.334 0.891,-0.425 0.821,-0.426C0.774,-0.427 0.682,-0.428 0.577,-0.428C0.578,-0.476 0.578,-0.529 0.577,-0.568C0.62,-0.578 0.662,-0.589 0.698,-0.602C0.753,-0.621 0.734,-0.724 0.648,-0.688C0.566,-0.654 0.383,-0.616 0.281,-0.623C0.208,-0.628 0.205,-0.533 0.279,-0.531C0.332,-0.53 0.402,-0.536 0.475,-0.548C0.475,-0.515 0.476,-0.47 0.476,-0.428C0.364,-0.428 0.253,-0.427 0.179,-0.425C0.113,-0.424 0.119,-0.333 0.179,-0.335C0.258,-0.337 0.366,-0.339 0.474,-0.339C0.462,-0.244 0.395,-0.093 0.225,-0.05C0.153,-0.032 0.178,0.078 0.279,0.043C0.485,-0.028 0.567,-0.212 0.575,-0.339Z" style="fill-rule:nonzero;"/>
                </g>
                <g transform="matrix(243.128,0,0,243.128,1571.64,477.589)">
                    <path d="M0.759,-0.08C0.782,-0.064 0.803,-0.046 0.821,-0.028C0.871,0.025 0.942,-0.062 0.885,-0.114C0.854,-0.142 0.814,-0.167 0.772,-0.187C0.771,-0.219 0.767,-0.252 0.766,-0.277C0.764,-0.326 0.761,-0.404 0.76,-0.482C0.784,-0.487 0.808,-0.493 0.832,-0.499C0.918,-0.52 0.875,-0.611 0.81,-0.591C0.794,-0.586 0.776,-0.582 0.759,-0.577C0.759,-0.626 0.76,-0.668 0.762,-0.696C0.766,-0.75 0.668,-0.759 0.666,-0.694C0.665,-0.663 0.666,-0.612 0.667,-0.556C0.618,-0.548 0.57,-0.545 0.526,-0.553C0.449,-0.566 0.437,-0.464 0.506,-0.458C0.563,-0.453 0.616,-0.457 0.67,-0.465C0.673,-0.386 0.675,-0.309 0.678,-0.268C0.679,-0.249 0.681,-0.234 0.681,-0.218C0.62,-0.231 0.559,-0.23 0.505,-0.206C0.401,-0.16 0.403,-0.046 0.49,0.004C0.599,0.066 0.721,-0.001 0.759,-0.08ZM0.267,0.017C0.292,-0.007 0.279,-0.035 0.287,-0.063C0.291,-0.079 0.297,-0.101 0.305,-0.126C0.313,-0.151 0.323,-0.178 0.336,-0.205C0.372,-0.28 0.296,-0.314 0.273,-0.266C0.271,-0.261 0.264,-0.243 0.261,-0.237C0.251,-0.217 0.25,-0.22 0.248,-0.238C0.244,-0.278 0.254,-0.362 0.267,-0.447C0.28,-0.532 0.297,-0.619 0.304,-0.664C0.314,-0.727 0.209,-0.747 0.203,-0.666C0.198,-0.601 0.176,-0.489 0.163,-0.368C0.15,-0.247 0.147,-0.118 0.179,-0.017C0.196,0.037 0.241,0.041 0.267,0.017ZM0.673,-0.127C0.657,-0.068 0.576,-0.047 0.528,-0.074C0.504,-0.088 0.51,-0.122 0.534,-0.133C0.572,-0.151 0.622,-0.146 0.672,-0.127L0.673,-0.127Z" style="fill-rule:nonzero;"/>
                </g>
                <g transform="matrix(243.128,0,0,243.128,1814.77,477.589)">
                    <path d="M0.241,0.074C0.268,0.074 0.295,0.051 0.295,0.019C0.295,-0.049 0.135,-0.137 0.1,-0.137C0.071,-0.137 0.053,-0.116 0.053,-0.093C0.053,-0.078 0.061,-0.063 0.08,-0.053C0.123,-0.031 0.178,0.015 0.203,0.052C0.213,0.067 0.227,0.074 0.241,0.074Z" style="fill-rule:nonzero;"/>
                </g>
                <g transform="matrix(243.128,0,0,243.128,356,706.341)">
                    <path d="M0.759,-0.08C0.782,-0.064 0.803,-0.046 0.821,-0.028C0.871,0.025 0.942,-0.062 0.885,-0.114C0.854,-0.142 0.814,-0.167 0.772,-0.187C0.771,-0.219 0.767,-0.252 0.766,-0.277C0.764,-0.326 0.761,-0.404 0.76,-0.482C0.784,-0.487 0.808,-0.493 0.832,-0.499C0.918,-0.52 0.875,-0.611 0.81,-0.591C0.794,-0.586 0.776,-0.582 0.759,-0.577C0.759,-0.626 0.76,-0.668 0.762,-0.696C0.766,-0.75 0.668,-0.759 0.666,-0.694C0.665,-0.663 0.666,-0.612 0.667,-0.556C0.618,-0.548 0.57,-0.545 0.526,-0.553C0.449,-0.566 0.437,-0.464 0.506,-0.458C0.563,-0.453 0.616,-0.457 0.67,-0.465C0.673,-0.386 0.675,-0.309 0.678,-0.268C0.679,-0.249 0.681,-0.234 0.681,-0.218C0.62,-0.231 0.559,-0.23 0.505,-0.206C0.401,-0.16 0.403,-0.046 0.49,0.004C0.599,0.066 0.721,-0.001 0.759,-0.08ZM0.267,0.017C0.292,-0.007 0.279,-0.035 0.287,-0.063C0.291,-0.079 0.297,-0.101 0.305,-0.126C0.313,-0.151 0.323,-0.178 0.336,-0.205C0.372,-0.28 0.296,-0.314 0.273,-0.266C0.271,-0.261 0.264,-0.243 0.261,-0.237C0.251,-0.217 0.25,-0.22 0.248,-0.238C0.244,-0.278 0.254,-0.362 0.267,-0.447C0.28,-0.532 0.297,-0.619 0.304,-0.664C0.314,-0.727 0.209,-0.747 0.203,-0.666C0.198,-0.601 0.176,-0.489 0.163,-0.368C0.15,-0.247 0.147,-0.118 0.179,-0.017C0.196,0.037 0.241,0.041 0.267,0.017ZM0.673,-0.127C0.657,-0.068 0.576,-0.047 0.528,-0.074C0.504,-0.088 0.51,-0.122 0.534,-0.133C0.572,-0.151 0.622,-0.146 0.672,-0.127L0.673,-0.127Z" style="fill-rule:nonzero;"/>
                </g>
                <g transform="matrix(243.128,0,0,243.128,599.128,706.341)">
                    <path d="M0.572,-0.648C0.561,-0.685 0.53,-0.716 0.513,-0.73C0.463,-0.771 0.396,-0.719 0.429,-0.685C0.438,-0.676 0.446,-0.667 0.454,-0.657C0.463,-0.646 0.472,-0.633 0.476,-0.617C0.494,-0.553 0.59,-0.587 0.572,-0.648ZM0.42,-0.413C0.479,-0.449 0.538,-0.486 0.603,-0.512C0.686,-0.545 0.75,-0.551 0.787,-0.524C0.822,-0.498 0.823,-0.456 0.797,-0.421C0.748,-0.354 0.637,-0.34 0.578,-0.381C0.547,-0.402 0.518,-0.39 0.504,-0.368C0.49,-0.346 0.491,-0.314 0.518,-0.298C0.625,-0.235 0.802,-0.256 0.882,-0.369C0.938,-0.449 0.935,-0.546 0.85,-0.6C0.773,-0.648 0.674,-0.635 0.575,-0.597C0.507,-0.571 0.442,-0.531 0.376,-0.494C0.372,-0.502 0.368,-0.51 0.364,-0.517C0.348,-0.549 0.338,-0.582 0.325,-0.615C0.299,-0.679 0.216,-0.646 0.231,-0.587C0.236,-0.569 0.243,-0.551 0.252,-0.532C0.261,-0.513 0.27,-0.494 0.279,-0.477C0.284,-0.468 0.288,-0.459 0.293,-0.449C0.253,-0.429 0.214,-0.412 0.173,-0.4C0.092,-0.376 0.134,-0.283 0.197,-0.302C0.246,-0.317 0.293,-0.339 0.339,-0.365C0.362,-0.323 0.387,-0.277 0.411,-0.231C0.459,-0.14 0.502,-0.049 0.517,0.011C0.528,0.055 0.562,0.069 0.588,0.06C0.614,0.051 0.633,0.019 0.618,-0.026C0.599,-0.084 0.551,-0.176 0.5,-0.269C0.473,-0.318 0.445,-0.368 0.42,-0.413Z" style="fill-rule:nonzero;"/>
                </g>
                <g transform="matrix(243.128,0,0,243.128,842.256,706.341)">
                    <path d="M0.903,-0.307C0.893,-0.392 0.824,-0.486 0.753,-0.539C0.693,-0.584 0.639,-0.51 0.687,-0.477C0.741,-0.44 0.782,-0.363 0.798,-0.283C0.812,-0.214 0.911,-0.234 0.903,-0.307ZM0.466,-0.142C0.477,-0.16 0.495,-0.191 0.505,-0.219C0.524,-0.271 0.441,-0.313 0.414,-0.255C0.407,-0.239 0.393,-0.213 0.381,-0.196C0.359,-0.166 0.346,-0.169 0.32,-0.194C0.264,-0.248 0.245,-0.347 0.241,-0.452C0.239,-0.498 0.243,-0.5 0.241,-0.539C0.238,-0.614 0.141,-0.601 0.139,-0.538C0.138,-0.502 0.14,-0.484 0.144,-0.427C0.152,-0.301 0.185,-0.185 0.257,-0.107C0.313,-0.047 0.402,-0.038 0.466,-0.142Z" style="fill-rule:nonzero;"/>
                </g>
                <g transform="matrix(243.128,0,0,243.128,1085.38,706.341)">
                    <path d="M0.28,-0.04C0.28,-0.103 0.229,-0.154 0.166,-0.154C0.103,-0.154 0.052,-0.103 0.052,-0.04C0.052,0.023 0.103,0.074 0.166,0.074C0.229,0.074 0.28,0.023 0.28,-0.04ZM0.242,-0.04C0.242,0.002 0.208,0.036 0.166,0.036C0.124,0.036 0.09,0.002 0.09,-0.04C0.09,-0.082 0.124,-0.115 0.166,-0.115C0.208,-0.115 0.242,-0.082 0.242,-0.04Z" style="fill-rule:nonzero;"/>
                </g>
                <g transform="matrix(243.128,0,0,243.128,1328.51,706.341)">
                    <path d="M0.78,-0.149C0.903,-0.251 0.943,-0.394 0.835,-0.507C0.743,-0.603 0.591,-0.604 0.477,-0.575C0.369,-0.548 0.251,-0.494 0.164,-0.458C0.089,-0.427 0.132,-0.321 0.213,-0.358C0.262,-0.381 0.307,-0.404 0.352,-0.426C0.397,-0.448 0.443,-0.469 0.495,-0.485C0.585,-0.512 0.698,-0.514 0.762,-0.441C0.808,-0.388 0.802,-0.306 0.717,-0.231C0.646,-0.168 0.549,-0.131 0.423,-0.114C0.343,-0.103 0.35,0.007 0.443,-0.008C0.591,-0.033 0.699,-0.082 0.78,-0.149Z" style="fill-rule:nonzero;"/>
                </g>
                <g transform="matrix(243.128,0,0,243.128,1571.64,706.341)">
                    <path d="M0.564,-0.082C0.594,-0.064 0.622,-0.043 0.645,-0.019C0.714,0.054 0.786,-0.048 0.715,-0.109C0.679,-0.14 0.631,-0.166 0.579,-0.184C0.58,-0.219 0.58,-0.255 0.579,-0.279C0.577,-0.352 0.574,-0.414 0.572,-0.47C0.587,-0.469 0.602,-0.469 0.616,-0.471C0.633,-0.473 0.655,-0.475 0.677,-0.479C0.699,-0.483 0.721,-0.49 0.74,-0.5C0.808,-0.538 0.743,-0.625 0.68,-0.589C0.664,-0.58 0.636,-0.57 0.606,-0.566C0.596,-0.565 0.582,-0.564 0.569,-0.564C0.568,-0.613 0.569,-0.659 0.572,-0.708C0.576,-0.774 0.466,-0.779 0.466,-0.708C0.465,-0.565 0.476,-0.47 0.488,-0.27C0.489,-0.252 0.49,-0.23 0.489,-0.208C0.416,-0.221 0.343,-0.22 0.29,-0.2C0.175,-0.157 0.177,-0.045 0.273,0.007C0.399,0.074 0.528,0.005 0.564,-0.082ZM0.476,-0.121C0.455,-0.058 0.371,-0.041 0.317,-0.07C0.29,-0.084 0.291,-0.115 0.318,-0.125C0.362,-0.141 0.419,-0.138 0.476,-0.121Z" style="fill-rule:nonzero;"/>
                </g>
                <g transform="matrix(243.128,0,0,243.128,1814.77,706.341)">
                    <path d="M0.903,-0.307C0.893,-0.392 0.824,-0.486 0.753,-0.539C0.693,-0.584 0.639,-0.51 0.687,-0.477C0.741,-0.44 0.782,-0.363 0.798,-0.283C0.812,-0.214 0.911,-0.234 0.903,-0.307ZM0.466,-0.142C0.477,-0.16 0.495,-0.191 0.505,-0.219C0.524,-0.271 0.441,-0.313 0.414,-0.255C0.407,-0.239 0.393,-0.213 0.381,-0.196C0.359,-0.166 0.346,-0.169 0.32,-0.194C0.264,-0.248 0.245,-0.347 0.241,-0.452C0.239,-0.498 0.243,-0.5 0.241,-0.539C0.238,-0.614 0.141,-0.601 0.139,-0.538C0.138,-0.502 0.14,-0.484 0.144,-0.427C0.152,-0.301 0.185,-0.185 0.257,-0.107C0.313,-0.047 0.402,-0.038 0.466,-0.142Z" style="fill-rule:nonzero;"/>
                </g>
                <g transform="matrix(243.128,0,0,243.128,2057.9,706.341)">
                    <path d="M0.28,-0.04C0.28,-0.103 0.229,-0.154 0.166,-0.154C0.103,-0.154 0.052,-0.103 0.052,-0.04C0.052,0.023 0.103,0.074 0.166,0.074C0.229,0.074 0.28,0.023 0.28,-0.04ZM0.242,-0.04C0.242,0.002 0.208,0.036 0.166,0.036C0.124,0.036 0.09,0.002 0.09,-0.04C0.09,-0.082 0.124,-0.115 0.166,-0.115C0.208,-0.115 0.242,-0.082 0.242,-0.04Z" style="fill-rule:nonzero;"/>
                </g>
                <g transform="matrix(243.128,0,0,243.128,2301.02,706.341)">
                    <path d="M0.893,-0.61C0.922,-0.61 0.936,-0.631 0.936,-0.653C0.936,-0.674 0.922,-0.695 0.893,-0.695L0.679,-0.695C0.679,-0.719 0.678,-0.743 0.678,-0.768C0.677,-0.798 0.654,-0.815 0.631,-0.815C0.609,-0.815 0.588,-0.799 0.588,-0.767L0.589,-0.695L0.393,-0.695C0.365,-0.695 0.35,-0.674 0.35,-0.653C0.35,-0.631 0.365,-0.61 0.393,-0.61L0.589,-0.61L0.589,-0.549C0.544,-0.549 0.501,-0.548 0.466,-0.547C0.41,-0.545 0.375,-0.511 0.372,-0.47C0.371,-0.456 0.371,-0.438 0.371,-0.419C0.371,-0.401 0.371,-0.382 0.372,-0.366C0.376,-0.32 0.408,-0.287 0.466,-0.285C0.501,-0.284 0.542,-0.282 0.586,-0.282C0.581,-0.247 0.572,-0.211 0.555,-0.177C0.538,-0.194 0.523,-0.213 0.511,-0.231C0.512,-0.234 0.512,-0.237 0.512,-0.239C0.512,-0.259 0.493,-0.27 0.474,-0.27C0.461,-0.27 0.449,-0.265 0.442,-0.254C0.427,-0.228 0.395,-0.195 0.356,-0.174C0.338,-0.164 0.331,-0.151 0.331,-0.137C0.331,-0.114 0.353,-0.093 0.377,-0.093C0.388,-0.093 0.41,-0.097 0.458,-0.165C0.472,-0.146 0.488,-0.128 0.506,-0.11C0.467,-0.072 0.413,-0.041 0.333,-0.024C0.307,-0.018 0.295,-0 0.295,0.018C0.295,0.042 0.314,0.066 0.342,0.066C0.366,0.066 0.499,0.026 0.574,-0.052C0.709,0.043 0.854,0.057 0.898,0.057C0.938,0.057 0.957,0.031 0.957,0.006C0.957,-0.017 0.941,-0.039 0.911,-0.039C0.79,-0.041 0.695,-0.075 0.624,-0.121C0.652,-0.171 0.666,-0.226 0.673,-0.282C0.718,-0.282 0.761,-0.283 0.798,-0.285C0.859,-0.288 0.897,-0.32 0.901,-0.367C0.902,-0.383 0.903,-0.405 0.903,-0.428C0.903,-0.444 0.903,-0.461 0.901,-0.476C0.897,-0.518 0.854,-0.545 0.803,-0.547C0.767,-0.549 0.724,-0.55 0.679,-0.55L0.679,-0.61L0.893,-0.61ZM0.178,0.028C0.178,0.058 0.201,0.072 0.225,0.072C0.249,0.072 0.273,0.057 0.274,0.027L0.286,-0.588C0.326,-0.659 0.366,-0.745 0.366,-0.766C0.366,-0.794 0.338,-0.814 0.311,-0.814C0.292,-0.814 0.274,-0.804 0.267,-0.781C0.224,-0.641 0.139,-0.508 0.046,-0.416C0.035,-0.405 0.03,-0.392 0.03,-0.381C0.03,-0.357 0.05,-0.337 0.075,-0.337C0.094,-0.337 0.116,-0.342 0.189,-0.439L0.178,0.027L0.178,0.028ZM0.679,-0.473C0.814,-0.473 0.815,-0.473 0.815,-0.417C0.815,-0.359 0.815,-0.357 0.678,-0.357C0.679,-0.39 0.679,-0.423 0.679,-0.454L0.679,-0.473ZM0.589,-0.459C0.589,-0.434 0.592,-0.398 0.592,-0.357C0.478,-0.357 0.461,-0.36 0.459,-0.385C0.458,-0.394 0.458,-0.406 0.458,-0.417C0.458,-0.455 0.464,-0.47 0.492,-0.471C0.52,-0.472 0.553,-0.473 0.589,-0.473L0.589,-0.459Z" style="fill-rule:nonzero;"/>
                </g>
                <g transform="matrix(243.128,0,0,243.128,2544.15,706.341)">
                    <path d="M0.903,-0.307C0.893,-0.392 0.824,-0.486 0.753,-0.539C0.693,-0.584 0.639,-0.51 0.687,-0.477C0.741,-0.44 0.782,-0.363 0.798,-0.283C0.812,-0.214 0.911,-0.234 0.903,-0.307ZM0.466,-0.142C0.477,-0.16 0.495,-0.191 0.505,-0.219C0.524,-0.271 0.441,-0.313 0.414,-0.255C0.407,-0.239 0.393,-0.213 0.381,-0.196C0.359,-0.166 0.346,-0.169 0.32,-0.194C0.264,-0.248 0.245,-0.347 0.241,-0.452C0.239,-0.498 0.243,-0.5 0.241,-0.539C0.238,-0.614 0.141,-0.601 0.139,-0.538C0.138,-0.502 0.14,-0.484 0.144,-0.427C0.152,-0.301 0.185,-0.185 0.257,-0.107C0.313,-0.047 0.402,-0.038 0.466,-0.142Z" style="fill-rule:nonzero;"/>
                </g>
                <g transform="matrix(243.128,0,0,243.128,2787.28,706.341)">
                    <path d="M0.572,-0.648C0.561,-0.685 0.53,-0.716 0.513,-0.73C0.463,-0.771 0.396,-0.719 0.429,-0.685C0.438,-0.676 0.446,-0.667 0.454,-0.657C0.463,-0.646 0.472,-0.633 0.476,-0.617C0.494,-0.553 0.59,-0.587 0.572,-0.648ZM0.42,-0.413C0.479,-0.449 0.538,-0.486 0.603,-0.512C0.686,-0.545 0.75,-0.551 0.787,-0.524C0.822,-0.498 0.823,-0.456 0.797,-0.421C0.748,-0.354 0.637,-0.34 0.578,-0.381C0.547,-0.402 0.518,-0.39 0.504,-0.368C0.49,-0.346 0.491,-0.314 0.518,-0.298C0.625,-0.235 0.802,-0.256 0.882,-0.369C0.938,-0.449 0.935,-0.546 0.85,-0.6C0.773,-0.648 0.674,-0.635 0.575,-0.597C0.507,-0.571 0.442,-0.531 0.376,-0.494C0.372,-0.502 0.368,-0.51 0.364,-0.517C0.348,-0.549 0.338,-0.582 0.325,-0.615C0.299,-0.679 0.216,-0.646 0.231,-0.587C0.236,-0.569 0.243,-0.551 0.252,-0.532C0.261,-0.513 0.27,-0.494 0.279,-0.477C0.284,-0.468 0.288,-0.459 0.293,-0.449C0.253,-0.429 0.214,-0.412 0.173,-0.4C0.092,-0.376 0.134,-0.283 0.197,-0.302C0.246,-0.317 0.293,-0.339 0.339,-0.365C0.362,-0.323 0.387,-0.277 0.411,-0.231C0.459,-0.14 0.502,-0.049 0.517,0.011C0.528,0.055 0.562,0.069 0.588,0.06C0.614,0.051 0.633,0.019 0.618,-0.026C0.599,-0.084 0.551,-0.176 0.5,-0.269C0.473,-0.318 0.445,-0.368 0.42,-0.413Z" style="fill-rule:nonzero;"/>
                </g>
                <g transform="matrix(243.128,0,0,243.128,3030.41,706.341)">
                    <path d="M0.55,-0.173C0.526,-0.116 0.484,-0.06 0.436,-0.026C0.349,0.036 0.436,0.107 0.503,0.054C0.609,-0.031 0.715,-0.243 0.626,-0.383C0.625,-0.405 0.623,-0.426 0.623,-0.44C0.623,-0.469 0.622,-0.5 0.621,-0.532C0.647,-0.533 0.671,-0.534 0.694,-0.534C0.756,-0.533 0.78,-0.533 0.851,-0.527C0.931,-0.521 0.935,-0.627 0.851,-0.629C0.783,-0.63 0.748,-0.629 0.699,-0.629C0.677,-0.629 0.651,-0.628 0.622,-0.626C0.622,-0.631 0.623,-0.636 0.623,-0.641C0.625,-0.668 0.628,-0.714 0.627,-0.737C0.623,-0.8 0.522,-0.807 0.522,-0.734C0.522,-0.702 0.528,-0.698 0.527,-0.636L0.527,-0.618C0.439,-0.61 0.349,-0.599 0.299,-0.591C0.257,-0.584 0.192,-0.577 0.152,-0.57C0.073,-0.557 0.093,-0.457 0.16,-0.469C0.19,-0.474 0.237,-0.487 0.309,-0.498C0.361,-0.506 0.444,-0.518 0.528,-0.526C0.529,-0.497 0.53,-0.467 0.531,-0.445C0.504,-0.449 0.474,-0.445 0.445,-0.436C0.384,-0.417 0.33,-0.345 0.365,-0.248C0.397,-0.158 0.484,-0.139 0.55,-0.173ZM0.549,-0.336C0.555,-0.328 0.558,-0.319 0.555,-0.298C0.545,-0.227 0.458,-0.227 0.44,-0.281C0.429,-0.315 0.445,-0.346 0.469,-0.357C0.49,-0.367 0.519,-0.365 0.533,-0.353C0.539,-0.348 0.544,-0.342 0.549,-0.336Z" style="fill-rule:nonzero;"/>
                </g>
                <g transform="matrix(243.128,0,0,243.128,3273.53,706.341)">
                    <path d="M0.903,-0.307C0.893,-0.392 0.824,-0.486 0.753,-0.539C0.693,-0.584 0.639,-0.51 0.687,-0.477C0.741,-0.44 0.782,-0.363 0.798,-0.283C0.812,-0.214 0.911,-0.234 0.903,-0.307ZM0.466,-0.142C0.477,-0.16 0.495,-0.191 0.505,-0.219C0.524,-0.271 0.441,-0.313 0.414,-0.255C0.407,-0.239 0.393,-0.213 0.381,-0.196C0.359,-0.166 0.346,-0.169 0.32,-0.194C0.264,-0.248 0.245,-0.347 0.241,-0.452C0.239,-0.498 0.243,-0.5 0.241,-0.539C0.238,-0.614 0.141,-0.601 0.139,-0.538C0.138,-0.502 0.14,-0.484 0.144,-0.427C0.152,-0.301 0.185,-0.185 0.257,-0.107C0.313,-0.047 0.402,-0.038 0.466,-0.142Z" style="fill-rule:nonzero;"/>
                </g>
                <g transform="matrix(243.128,0,0,243.128,3516.66,706.341)">
                    <path d="M0.28,-0.04C0.28,-0.103 0.229,-0.154 0.166,-0.154C0.103,-0.154 0.052,-0.103 0.052,-0.04C0.052,0.023 0.103,0.074 0.166,0.074C0.229,0.074 0.28,0.023 0.28,-0.04ZM0.242,-0.04C0.242,0.002 0.208,0.036 0.166,0.036C0.124,0.036 0.09,0.002 0.09,-0.04C0.09,-0.082 0.124,-0.115 0.166,-0.115C0.208,-0.115 0.242,-0.082 0.242,-0.04Z" style="fill-rule:nonzero;"/>
                </g>
            </g>
        </g>
    </g>
</svg>
