<?xml version="1.0" encoding="UTF-8" standalone="no"?>
<!DOCTYPE svg PUBLIC "-//W3C//DTD SVG 1.1//EN" "http://www.w3.org/Graphics/SVG/1.1/DTD/svg11.dtd">
<svg width="100%" height="100%" viewBox="0 0 789 551" version="1.1" xmlns="http://www.w3.org/2000/svg" xmlns:xlink="http://www.w3.org/1999/xlink" xml:space="preserve" xmlns:serif="http://www.serif.com/" style="fill-rule:evenodd;clip-rule:evenodd;stroke-linejoin:round;stroke-miterlimit:2;">
    <g transform="matrix(0.48,0,0,0.48,-26328.9,-6061.45)">
        <g transform="matrix(1,0,0,16.3237,54702,35.0676)">
            <g transform="matrix(13.9597,0,0,2.01017,-4860.57,178.263)">
                <path d="M365.642,298.324C365.909,298.397 366.291,298.413 366.73,298.348C368.813,298.031 370.207,297.511 371.468,296.902C372.805,296.26 371.888,295.553 369.901,295.553C367.036,295.553 362.872,295.544 360.102,295.601C358.669,295.634 358.574,296.414 360.255,296.382C362.929,296.325 367.093,296.3 369.233,296.308C369.73,296.308 369.73,296.43 369.443,296.601C368.698,297.04 367.246,297.406 365.966,297.625C365.909,297.633 365.871,297.649 365.814,297.657C365.833,297.56 365.833,297.454 365.833,297.357C365.852,297.015 365.279,296.894 364.686,296.894C364.075,296.894 363.559,297.048 363.636,297.389C363.922,298.568 362.834,299.909 359.624,300.583C358.86,300.746 358.784,301.03 359.108,301.217C359.433,301.404 360.14,301.493 360.904,301.29C363.731,300.534 365.164,299.567 365.642,298.324Z" style="fill-rule:nonzero;"/>
                <path d="M386.712,299.307C388.412,298.836 390.399,298.161 391.545,297.601C392.71,297.04 391.468,296.422 389.749,296.414C386.578,296.39 381.879,296.43 378.88,296.455C377.332,296.471 377.466,297.3 378.899,297.275C381.86,297.227 386.521,297.194 388.909,297.202C389.482,297.202 389.329,297.373 389.081,297.479C388.202,297.852 386.234,298.494 385.145,298.779C384.343,298.543 383.503,298.332 382.777,298.178C381.44,297.885 380.523,298.584 381.573,298.795C383.121,299.104 385.394,299.941 386.081,300.404C386.444,300.656 387.037,300.664 387.476,300.542C387.915,300.421 388.183,300.169 387.839,299.892C387.591,299.697 387.189,299.502 386.712,299.307Z" style="fill-rule:nonzero;"/>
                <path d="M407.515,297.56C408.756,297.56 409.96,297.568 411.144,297.584C412.481,297.601 412.883,296.788 411.087,296.796C409.941,296.796 408.718,296.804 407.496,296.812C407.496,296.447 407.496,296.089 407.515,295.764C407.534,295.138 405.528,295.098 405.604,295.772C405.623,296 405.623,296.398 405.623,296.82C404.592,296.829 403.58,296.837 402.548,296.845C402.529,296.447 402.51,296.081 402.472,295.813C402.395,295.228 400.523,295.293 400.58,295.845C400.619,296.121 400.638,296.479 400.657,296.861C399.453,296.869 398.25,296.877 397.104,296.894C395.786,296.91 395.728,297.682 397.218,297.649C398.288,297.625 399.472,297.609 400.676,297.592C400.676,298.039 400.657,298.462 400.619,298.795C400.58,299.063 401.077,299.21 401.574,299.21C402.07,299.21 402.529,299.063 402.548,298.787C402.567,298.47 402.567,298.039 402.567,297.576C403.58,297.568 404.592,297.56 405.623,297.56L405.623,297.747C405.623,299.055 404.305,300.087 401.344,300.778C400.16,301.054 400.924,301.802 402.452,301.428C405.967,300.567 407.515,299.267 407.515,297.714L407.515,297.56Z" style="fill-rule:nonzero;"/>
                <path d="M429.196,298.421C429.846,298.421 430.17,298.218 430.17,298.023C430.17,297.82 429.846,297.617 429.196,297.617L417.2,297.617C416.55,297.617 416.187,297.828 416.187,298.031C416.187,298.226 416.512,298.421 417.2,298.421L429.196,298.421Z" style="fill-rule:nonzero;"/>
                <path d="M443.676,298.348C445.567,298.348 447.286,298.356 448.337,298.373C449.674,298.389 449.712,297.649 448.375,297.641C447.477,297.633 445.72,297.625 443.714,297.625C443.733,297.235 443.733,296.804 443.714,296.487C444.536,296.406 445.338,296.317 446.026,296.211C447.076,296.056 446.713,295.219 445.071,295.512C443.504,295.788 440.008,296.097 438.06,296.04C436.665,296 436.608,296.772 438.022,296.788C439.034,296.796 440.371,296.747 441.766,296.65C441.766,296.918 441.785,297.284 441.785,297.625C439.645,297.625 437.525,297.633 436.111,297.649C434.851,297.657 434.965,298.397 436.111,298.381C437.62,298.364 439.684,298.348 441.747,298.348C441.517,299.12 440.238,300.347 436.99,300.697C435.615,300.843 436.092,301.737 438.022,301.453C441.957,300.876 443.523,299.38 443.676,298.348Z" style="fill-rule:nonzero;"/>
                <path d="M466.294,300.453C466.733,300.583 467.134,300.729 467.478,300.876C468.433,301.306 469.789,300.599 468.701,300.177C468.108,299.949 467.344,299.746 466.542,299.583C466.523,299.323 466.446,299.055 466.427,298.852C466.389,298.454 466.332,297.82 466.313,297.186C466.771,297.145 467.23,297.097 467.688,297.048C469.331,296.877 468.509,296.138 467.268,296.3C466.962,296.341 466.618,296.373 466.294,296.414C466.294,296.016 466.313,295.675 466.351,295.447C466.427,295.008 464.555,294.935 464.517,295.463C464.498,295.715 464.517,296.13 464.536,296.585C463.6,296.65 462.683,296.674 461.843,296.609C460.372,296.503 460.143,297.332 461.461,297.381C462.549,297.422 463.562,297.389 464.593,297.324C464.651,297.966 464.689,298.592 464.746,298.925C464.765,299.08 464.804,299.202 464.804,299.332C463.638,299.226 462.473,299.234 461.442,299.429C459.455,299.803 459.493,300.729 461.155,301.136C463.237,301.64 465.568,301.095 466.294,300.453ZM456.895,301.241C457.373,301.046 457.124,300.819 457.277,300.591C457.354,300.461 457.468,300.282 457.621,300.079C457.774,299.876 457.965,299.657 458.213,299.437C458.901,298.828 457.449,298.551 457.01,298.941C456.971,298.982 456.838,299.128 456.78,299.177C456.589,299.34 456.57,299.315 456.532,299.169C456.456,298.844 456.647,298.161 456.895,297.471C457.143,296.78 457.468,296.073 457.602,295.707C457.793,295.195 455.787,295.033 455.672,295.691C455.577,296.219 455.157,297.129 454.908,298.113C454.66,299.096 454.603,300.144 455.214,300.965C455.539,301.404 456.398,301.436 456.895,301.241ZM464.651,300.071C464.345,300.551 462.798,300.721 461.881,300.502C461.422,300.388 461.537,300.112 461.995,300.022C462.721,299.876 463.677,299.917 464.632,300.071L464.651,300.071Z" style="fill-rule:nonzero;"/>
                <path d="M475.501,301.705C476.017,301.705 476.533,301.518 476.533,301.258C476.533,300.705 473.476,299.99 472.808,299.99C472.254,299.99 471.91,300.16 471.91,300.347C471.91,300.469 472.063,300.591 472.426,300.672C473.247,300.851 474.298,301.225 474.775,301.526C474.966,301.648 475.234,301.705 475.501,301.705Z" style="fill-rule:nonzero;"/>
                <path d="M428.088,309.891C428.528,310.021 428.929,310.167 429.273,310.313C430.228,310.744 431.584,310.037 430.495,309.614C429.903,309.387 429.139,309.184 428.337,309.021C428.317,308.761 428.241,308.493 428.222,308.29C428.184,307.891 428.126,307.258 428.107,306.624C428.566,306.583 429.024,306.534 429.483,306.486C431.126,306.315 430.304,305.575 429.062,305.738C428.757,305.779 428.413,305.811 428.088,305.852C428.088,305.453 428.107,305.112 428.146,304.885C428.222,304.446 426.35,304.373 426.312,304.901C426.293,305.153 426.312,305.567 426.331,306.022C425.395,306.087 424.478,306.112 423.637,306.047C422.166,305.941 421.937,306.77 423.255,306.819C424.344,306.859 425.357,306.827 426.388,306.762C426.445,307.404 426.484,308.03 426.541,308.363C426.56,308.517 426.598,308.639 426.598,308.769C425.433,308.663 424.268,308.672 423.236,308.867C421.249,309.24 421.288,310.167 422.95,310.573C425.032,311.077 427.362,310.533 428.088,309.891ZM418.69,310.679C419.167,310.484 418.919,310.256 419.072,310.029C419.148,309.899 419.263,309.72 419.416,309.517C419.568,309.314 419.759,309.094 420.008,308.875C420.696,308.265 419.244,307.989 418.804,308.379C418.766,308.42 418.632,308.566 418.575,308.615C418.384,308.777 418.365,308.753 418.327,308.607C418.25,308.282 418.441,307.599 418.69,306.908C418.938,306.217 419.263,305.51 419.397,305.145C419.588,304.633 417.582,304.47 417.467,305.128C417.372,305.657 416.951,306.567 416.703,307.55C416.455,308.533 416.397,309.582 417.009,310.403C417.333,310.841 418.193,310.874 418.69,310.679ZM426.445,309.509C426.14,309.988 424.592,310.159 423.676,309.939C423.217,309.826 423.332,309.549 423.79,309.46C424.516,309.314 425.471,309.354 426.426,309.509L426.445,309.509Z" style="fill-rule:nonzero;"/>
                <path d="M443.619,305.275C443.409,304.974 442.816,304.722 442.492,304.608C441.537,304.275 440.257,304.698 440.887,304.974C441.059,305.047 441.212,305.12 441.365,305.202C441.537,305.291 441.708,305.397 441.785,305.527C442.129,306.047 443.963,305.77 443.619,305.275ZM440.715,307.184C441.842,306.892 442.969,306.591 444.211,306.38C445.796,306.112 447.019,306.063 447.726,306.282C448.394,306.494 448.413,306.835 447.917,307.119C446.981,307.664 444.86,307.778 443.733,307.444C443.141,307.274 442.587,307.371 442.32,307.55C442.052,307.729 442.071,307.989 442.587,308.119C444.631,308.631 448.012,308.46 449.541,307.542C450.61,306.892 450.553,306.104 448.929,305.665C447.458,305.275 445.567,305.38 443.676,305.689C442.377,305.9 441.135,306.225 439.875,306.526C439.798,306.461 439.722,306.396 439.645,306.339C439.34,306.079 439.149,305.811 438.9,305.543C438.404,305.023 436.818,305.291 437.105,305.77C437.2,305.917 437.334,306.063 437.506,306.217C437.678,306.372 437.85,306.526 438.022,306.664C438.117,306.737 438.194,306.811 438.289,306.892C437.525,307.054 436.78,307.193 435.997,307.29C434.449,307.485 435.252,308.241 436.455,308.087C437.391,307.965 438.289,307.786 439.168,307.575C439.607,307.916 440.085,308.29 440.543,308.663C441.46,309.403 442.282,310.143 442.568,310.63C442.778,310.988 443.428,311.102 443.924,311.028C444.421,310.955 444.784,310.695 444.497,310.329C444.134,309.858 443.218,309.11 442.243,308.355C441.728,307.956 441.193,307.55 440.715,307.184Z" style="fill-rule:nonzero;"/>
                <path d="M469.044,308.046C468.853,307.355 467.535,306.591 466.179,306.16C465.033,305.795 464.001,306.396 464.918,306.664C465.95,306.965 466.733,307.591 467.039,308.241C467.306,308.802 469.197,308.639 469.044,308.046ZM460.697,309.387C460.907,309.24 461.25,308.989 461.442,308.761C461.804,308.338 460.219,307.997 459.703,308.468C459.569,308.598 459.302,308.81 459.073,308.948C458.653,309.192 458.404,309.167 457.908,308.964C456.838,308.525 456.475,307.721 456.398,306.867C456.36,306.494 456.437,306.477 456.398,306.16C456.341,305.551 454.488,305.657 454.45,306.169C454.431,306.461 454.469,306.607 454.545,307.071C454.698,308.095 455.329,309.037 456.704,309.671C457.774,310.159 459.474,310.232 460.697,309.387Z" style="fill-rule:nonzero;"/>
                <path d="M476.246,310.216C476.246,309.704 475.272,309.289 474.068,309.289C472.865,309.289 471.891,309.704 471.891,310.216C471.891,310.728 472.865,311.142 474.068,311.142C475.272,311.142 476.246,310.728 476.246,310.216ZM475.52,310.216C475.52,310.557 474.871,310.833 474.068,310.833C473.266,310.833 472.617,310.557 472.617,310.216C472.617,309.874 473.266,309.606 474.068,309.606C474.871,309.606 475.52,309.874 475.52,310.216Z" style="fill-rule:nonzero;"/>
                <path d="M428.489,318.767C430.839,317.939 431.603,316.776 429.54,315.858C427.783,315.078 424.879,315.07 422.701,315.306C420.638,315.525 418.384,315.964 416.722,316.256C415.289,316.508 416.111,317.37 417.658,317.069C418.594,316.882 419.454,316.695 420.313,316.516C421.173,316.338 422.052,316.167 423.045,316.037C424.764,315.817 426.923,315.801 428.146,316.394C429.024,316.825 428.91,317.492 427.286,318.101C425.93,318.613 424.077,318.914 421.67,319.052C420.142,319.141 420.275,320.035 422.052,319.913C424.879,319.71 426.942,319.312 428.489,318.767Z" style="fill-rule:nonzero;"/>
                <path d="M443.466,319.312C444.039,319.458 444.574,319.629 445.013,319.824C446.331,320.417 447.707,319.588 446.35,319.093C445.663,318.841 444.746,318.629 443.752,318.483C443.772,318.199 443.772,317.906 443.752,317.711C443.714,317.118 443.657,316.614 443.619,316.159C443.905,316.167 444.192,316.167 444.459,316.151C444.784,316.134 445.204,316.118 445.624,316.086C446.045,316.053 446.465,315.996 446.828,315.915C448.127,315.606 446.885,314.899 445.682,315.192C445.376,315.265 444.841,315.346 444.268,315.379C444.077,315.387 443.81,315.395 443.561,315.395C443.542,314.997 443.561,314.623 443.619,314.225C443.695,313.688 441.594,313.648 441.594,314.225C441.575,315.387 441.785,316.159 442.014,317.784C442.033,317.93 442.052,318.109 442.033,318.288C440.639,318.182 439.244,318.19 438.232,318.353C436.035,318.702 436.073,319.613 437.907,320.035C440.314,320.58 442.778,320.019 443.466,319.312ZM441.785,318.995C441.384,319.507 439.779,319.645 438.748,319.41C438.232,319.296 438.251,319.044 438.767,318.963C439.607,318.833 440.696,318.857 441.785,318.995Z" style="fill-rule:nonzero;"/>
                <path d="M469.044,317.483C468.853,316.793 467.535,316.029 466.179,315.598C465.033,315.232 464.001,315.834 464.918,316.102C465.95,316.403 466.733,317.028 467.039,317.679C467.306,318.239 469.197,318.077 469.044,317.483ZM460.697,318.824C460.907,318.678 461.25,318.426 461.442,318.199C461.804,317.776 460.219,317.435 459.703,317.906C459.569,318.036 459.302,318.247 459.073,318.386C458.653,318.629 458.404,318.605 457.908,318.402C456.838,317.963 456.475,317.158 456.398,316.305C456.36,315.931 456.437,315.915 456.398,315.598C456.341,314.989 454.488,315.094 454.45,315.606C454.431,315.899 454.469,316.045 454.545,316.508C454.698,317.532 455.329,318.475 456.704,319.109C457.774,319.596 459.474,319.67 460.697,318.824Z" style="fill-rule:nonzero;"/>
                <path d="M476.246,319.653C476.246,319.141 475.272,318.727 474.068,318.727C472.865,318.727 471.891,319.141 471.891,319.653C471.891,320.165 472.865,320.58 474.068,320.58C475.272,320.58 476.246,320.165 476.246,319.653ZM475.52,319.653C475.52,319.995 474.871,320.271 474.068,320.271C473.266,320.271 472.617,319.995 472.617,319.653C472.617,319.312 473.266,319.044 474.068,319.044C474.871,319.044 475.52,319.312 475.52,319.653Z" style="fill-rule:nonzero;"/>
                <path d="M392.443,324.459C392.997,324.459 393.264,324.288 393.264,324.109C393.264,323.939 392.997,323.768 392.443,323.768L388.355,323.768C388.355,323.573 388.336,323.378 388.336,323.175C388.316,322.931 387.877,322.793 387.438,322.793C387.017,322.793 386.616,322.923 386.616,323.183L386.616,323.191L386.635,323.768L382.891,323.768C382.356,323.768 382.07,323.939 382.07,324.109C382.07,324.288 382.356,324.459 382.891,324.459L386.635,324.459L386.635,324.954C385.776,324.954 384.954,324.963 384.286,324.971C383.216,324.987 382.547,325.263 382.49,325.596C382.471,325.71 382.471,325.856 382.471,326.011C382.471,326.157 382.471,326.312 382.49,326.442C382.567,326.815 383.178,327.084 384.286,327.1C384.954,327.108 385.738,327.124 386.578,327.124C386.483,327.409 386.311,327.701 385.986,327.978C385.661,327.839 385.375,327.685 385.145,327.539C385.165,327.514 385.165,327.49 385.165,327.474C385.165,327.311 384.802,327.222 384.439,327.222C384.19,327.222 383.961,327.262 383.827,327.352C383.541,327.563 382.93,327.831 382.185,328.002C381.841,328.083 381.707,328.189 381.707,328.303C381.707,328.49 382.127,328.66 382.586,328.66C382.796,328.66 383.216,328.628 384.133,328.075C384.4,328.229 384.706,328.376 385.05,328.522C384.305,328.831 383.273,329.083 381.745,329.221C381.248,329.27 381.019,329.416 381.019,329.562C381.019,329.757 381.382,329.952 381.917,329.952C382.376,329.952 384.916,329.627 386.349,328.993C388.928,329.765 391.698,329.879 392.538,329.879C393.302,329.879 393.665,329.668 393.665,329.465C393.665,329.278 393.36,329.099 392.786,329.099C390.475,329.083 388.66,328.806 387.304,328.433C387.839,328.026 388.106,327.579 388.24,327.124C389.1,327.124 389.921,327.116 390.628,327.1C391.793,327.075 392.519,326.815 392.595,326.433C392.615,326.303 392.634,326.125 392.634,325.938C392.634,325.808 392.634,325.67 392.595,325.548C392.519,325.206 391.698,324.987 390.723,324.971C390.036,324.954 389.214,324.946 388.355,324.946L388.355,324.459L392.443,324.459ZM378.784,329.644C378.784,329.887 379.224,330.001 379.682,330.001C380.141,330.001 380.599,329.879 380.618,329.635L380.847,324.637C381.611,324.06 382.376,323.362 382.376,323.191C382.376,322.963 381.841,322.801 381.325,322.801C380.962,322.801 380.618,322.882 380.484,323.069C379.663,324.207 378.039,325.288 376.263,326.035C376.053,326.125 375.957,326.23 375.957,326.32C375.957,326.515 376.339,326.677 376.817,326.677C377.18,326.677 377.6,326.637 378.994,325.848L378.784,329.635L378.784,329.644ZM388.355,325.572C390.934,325.572 390.953,325.572 390.953,326.027C390.953,326.498 390.953,326.515 388.336,326.515C388.355,326.247 388.355,325.978 388.355,325.726L388.355,325.572ZM386.635,325.686C386.635,325.889 386.693,326.182 386.693,326.515C384.515,326.515 384.19,326.49 384.152,326.287C384.133,326.214 384.133,326.117 384.133,326.027C384.133,325.718 384.248,325.596 384.782,325.588C385.317,325.58 385.948,325.572 386.635,325.572L386.635,325.686Z" style="fill-rule:nonzero;"/>
                <path d="M411.736,326.921C411.545,326.23 410.227,325.466 408.871,325.036C407.725,324.67 406.693,325.271 407.61,325.54C408.642,325.84 409.425,326.466 409.731,327.116C409.998,327.677 411.889,327.514 411.736,326.921ZM403.388,328.262C403.599,328.116 403.942,327.864 404.133,327.636C404.496,327.214 402.911,326.872 402.395,327.344C402.261,327.474 401.994,327.685 401.765,327.823C401.344,328.067 401.096,328.043 400.599,327.839C399.53,327.401 399.167,326.596 399.09,325.743C399.052,325.369 399.129,325.353 399.09,325.036C399.033,324.426 397.18,324.532 397.142,325.044C397.123,325.336 397.161,325.483 397.237,325.946C397.39,326.97 398.021,327.913 399.396,328.546C400.466,329.034 402.166,329.107 403.388,328.262Z" style="fill-rule:nonzero;"/>
                <path d="M424.516,324.15C424.306,323.849 423.714,323.597 423.389,323.483C422.434,323.15 421.154,323.573 421.784,323.849C421.956,323.922 422.109,323.995 422.262,324.077C422.434,324.166 422.606,324.272 422.682,324.402C423.026,324.922 424.86,324.646 424.516,324.15ZM421.612,326.06C422.739,325.767 423.867,325.466 425.108,325.255C426.694,324.987 427.916,324.938 428.623,325.158C429.292,325.369 429.311,325.71 428.814,325.995C427.878,326.539 425.758,326.653 424.631,326.32C424.038,326.149 423.484,326.247 423.217,326.425C422.95,326.604 422.969,326.864 423.484,326.994C425.528,327.506 428.91,327.336 430.438,326.417C431.508,325.767 431.45,324.979 429.827,324.54C428.356,324.15 426.465,324.256 424.573,324.564C423.274,324.776 422.033,325.101 420.772,325.401C420.696,325.336 420.619,325.271 420.543,325.214C420.237,324.954 420.046,324.686 419.798,324.418C419.301,323.898 417.715,324.166 418.002,324.646C418.098,324.792 418.231,324.938 418.403,325.093C418.575,325.247 418.747,325.401 418.919,325.54C419.014,325.613 419.091,325.686 419.186,325.767C418.422,325.93 417.677,326.068 416.894,326.165C415.347,326.36 416.149,327.116 417.353,326.962C418.289,326.84 419.186,326.661 420.065,326.45C420.504,326.791 420.982,327.165 421.441,327.539C422.357,328.278 423.179,329.018 423.465,329.505C423.676,329.863 424.325,329.977 424.822,329.904C425.318,329.83 425.681,329.57 425.395,329.205C425.032,328.733 424.115,327.986 423.141,327.23C422.625,326.832 422.09,326.425 421.612,326.06Z" style="fill-rule:nonzero;"/>
                <path d="M443.198,328.01C442.74,328.473 441.938,328.928 441.021,329.205C439.359,329.709 441.021,330.286 442.301,329.855C444.326,329.164 446.35,327.441 444.65,326.303C444.631,326.125 444.593,325.954 444.593,325.84C444.593,325.605 444.574,325.353 444.555,325.093C445.051,325.084 445.51,325.076 445.949,325.076C447.134,325.084 447.592,325.084 448.948,325.133C450.477,325.182 450.553,324.321 448.948,324.304C447.649,324.296 446.981,324.304 446.045,324.304C445.624,324.304 445.128,324.312 444.574,324.329C444.574,324.288 444.593,324.247 444.593,324.207C444.631,323.987 444.688,323.614 444.669,323.427C444.593,322.915 442.664,322.858 442.664,323.451C442.664,323.711 442.778,323.744 442.759,324.247L442.759,324.394C441.078,324.459 439.359,324.548 438.404,324.613C437.601,324.67 436.36,324.727 435.596,324.784C434.086,324.889 434.469,325.702 435.748,325.605C436.321,325.564 437.219,325.458 438.595,325.369C439.588,325.304 441.174,325.206 442.778,325.141C442.797,325.377 442.816,325.621 442.836,325.8C442.32,325.767 441.747,325.8 441.193,325.873C440.027,326.027 438.996,326.612 439.664,327.401C440.276,328.132 441.938,328.286 443.198,328.01ZM443.179,326.685C443.294,326.75 443.351,326.824 443.294,326.994C443.103,327.571 441.441,327.571 441.097,327.132C440.887,326.856 441.193,326.604 441.651,326.515C442.052,326.433 442.606,326.45 442.874,326.547C442.988,326.588 443.084,326.637 443.179,326.685Z" style="fill-rule:nonzero;"/>
                <path d="M469.044,326.921C468.853,326.23 467.535,325.466 466.179,325.036C465.033,324.67 464.001,325.271 464.918,325.54C465.95,325.84 466.733,326.466 467.039,327.116C467.306,327.677 469.197,327.514 469.044,326.921ZM460.697,328.262C460.907,328.116 461.25,327.864 461.442,327.636C461.804,327.214 460.219,326.872 459.703,327.344C459.569,327.474 459.302,327.685 459.073,327.823C458.653,328.067 458.404,328.043 457.908,327.839C456.838,327.401 456.475,326.596 456.398,325.743C456.36,325.369 456.437,325.353 456.398,325.036C456.341,324.426 454.488,324.532 454.45,325.044C454.431,325.336 454.469,325.483 454.545,325.946C454.698,326.97 455.329,327.913 456.704,328.546C457.774,329.034 459.474,329.107 460.697,328.262Z" style="fill-rule:nonzero;"/>
                <path d="M476.246,329.091C476.246,328.579 475.272,328.164 474.068,328.164C472.865,328.164 471.891,328.579 471.891,329.091C471.891,329.603 472.865,330.017 474.068,330.017C475.272,330.017 476.246,329.603 476.246,329.091ZM475.52,329.091C475.52,329.432 474.871,329.709 474.068,329.709C473.266,329.709 472.617,329.432 472.617,329.091C472.617,328.75 473.266,328.481 474.068,328.481C474.871,328.481 475.52,328.75 475.52,329.091Z" style="fill-rule:nonzero;"/>
            </g>
        </g>
    </g>
</svg>
