<?xml version="1.0" encoding="UTF-8" standalone="no"?>
<!DOCTYPE svg PUBLIC "-//W3C//DTD SVG 1.1//EN" "http://www.w3.org/Graphics/SVG/1.1/DTD/svg11.dtd">
<svg width="100%" height="100%" viewBox="0 0 705 3374" version="1.1" xmlns="http://www.w3.org/2000/svg" xmlns:xlink="http://www.w3.org/1999/xlink" xml:space="preserve" xmlns:serif="http://www.serif.com/" style="fill-rule:evenodd;clip-rule:evenodd;stroke-linejoin:round;stroke-miterlimit:2;">
    <g transform="matrix(1,0,0,1,-60995.3,-1166.72)">
        <g transform="matrix(1.25123,0,0,6.64323,54995.4,35.0676)">
            <g transform="matrix(1,0,0,1,-170.232,11.7143)">
                <g transform="matrix(2.4299,0,0,2.59829,4009.68,-428.686)">
                    <path d="M423.433,295.018L411.014,295.91C415.485,297.765 420.254,299.655 424.923,301.143C415.385,302.385 408.331,303.803 408.331,305.745C408.331,308.755 423.333,309.718 443.105,309.718C456.021,309.718 466.552,309.543 474.998,309.28L475.196,306.76C466.354,307.145 452.941,307.408 442.708,307.408C428.897,307.408 422.042,306.743 422.042,305.483C422.042,304.258 427.606,303.26 435.852,302.298C444.893,301.265 457.412,300.25 463.572,299.708C467.248,299.375 470.427,299.078 473.408,298.763L466.552,296.733C463.969,297.118 461.088,297.415 457.313,297.8C452.643,298.273 443.999,299.025 435.951,299.865C431.878,298.535 427.208,296.838 423.433,295.018Z" style="fill:rgb(35,31,32);fill-rule:nonzero;"/>
                    <path d="M412.305,316.295L412.305,318.605C420.353,318.727 428.997,318.797 439.429,318.797C448.867,318.797 461.187,318.692 468.142,318.587L468.142,316.26C460.492,316.4 449.166,316.505 439.329,316.505C428.897,316.505 419.657,316.435 412.305,316.295ZM420.651,323.715L407.636,323.505C406.841,324.153 405.648,325.01 405.648,326.025C405.648,328.423 417.074,329.77 439.826,329.77C453.736,329.77 465.658,329.543 474.302,329.175L474.203,326.708C465.46,327.145 452.742,327.408 439.329,327.408C425.023,327.408 418.962,326.603 418.962,325.483C418.962,324.888 419.657,324.345 420.651,323.715Z" style="fill:rgb(35,31,32);fill-rule:nonzero;"/>
                    <path d="M423.433,335.122L411.014,336.015C415.485,337.87 420.254,339.76 424.923,341.247C415.385,342.49 408.331,343.907 408.331,345.85C408.331,348.86 423.333,349.822 443.105,349.822C456.021,349.822 466.552,349.647 474.998,349.385L475.196,346.865C466.354,347.25 452.941,347.512 442.708,347.512C428.897,347.512 422.042,346.847 422.042,345.587C422.042,344.362 427.606,343.365 435.852,342.402C444.893,341.37 457.412,340.355 463.572,339.812C467.248,339.48 470.427,339.182 473.408,338.867L466.552,336.837C463.969,337.222 461.088,337.52 457.313,337.905C452.643,338.377 443.999,339.13 435.951,339.97C431.878,338.64 427.208,336.942 423.433,335.122Z" style="fill:rgb(35,31,32);fill-rule:nonzero;"/>
                    <path d="M447.973,356.12L433.865,355.122C432.176,355.857 430.288,356.435 428.997,356.907C423.731,358.57 403.363,365.71 396.011,369.21L410.02,370.05C411.51,369.122 414.988,367.162 417.571,366.147C421.148,364.73 426.712,363.505 433.468,363.505C437.044,363.505 439.031,363.872 439.329,364.485C439.628,365.202 439.528,366.637 439.926,367.565C440.323,368.842 445.489,369.997 456.518,369.997C471.719,369.997 480.959,368.002 486.125,365.01L475.395,363.47C472.514,365.64 467.248,367.6 458.604,367.6C455.325,367.6 452.544,367.337 452.146,366.655C451.649,365.92 451.947,364.52 451.749,363.732C451.351,362.28 446.88,361.457 439.429,361.457C435.653,361.457 431.679,361.615 428.003,361.982C432.971,360.442 439.926,358.202 444.794,356.942C445.887,356.662 446.98,356.365 447.973,356.12Z" style="fill:rgb(35,31,32);fill-rule:nonzero;"/>
                    <path d="M431.878,380.32L448.271,380.32L448.271,381.51L431.878,381.51L431.878,380.32ZM431.878,377.642L448.271,377.642L448.271,378.815L431.878,378.815L431.878,377.642ZM395.316,376.592C401.178,377.38 407.934,378.517 410.815,379.322L419.558,377.975C416.379,377.17 409.424,376.102 403.562,375.385L395.316,376.592ZM393.627,381.702L399.588,383.435C405.947,382.805 413.597,381.982 420.552,381.23L417.372,379.532C408.53,380.372 399.687,381.212 393.627,381.702ZM474.103,375.175C470.626,376.015 464.565,377.082 459.796,377.817L459.796,376.05L444.595,376.05L447.973,374.562L434.66,374.3C434.262,374.807 433.468,375.455 432.573,376.05L420.85,376.05L420.85,383.102L434.163,383.102L434.163,384.257L396.011,384.257L396.011,386.077L424.426,386.077C416.18,387.25 404.556,388.265 393.329,388.825C395.912,389.245 399.489,390.05 401.376,390.592C413.199,389.84 425.221,388.545 434.163,387.005L434.163,390.715L446.284,390.715L446.284,387.04C455.524,388.51 467.645,389.752 479.369,390.452C481.157,389.927 484.734,389.105 487.417,388.685C476.09,388.142 464.168,387.197 455.922,386.077L484.734,386.077L484.734,384.257L446.284,384.257L446.284,383.102L459.796,383.102L459.796,381.02C466.95,381.737 475.494,382.717 479.767,383.382L487.218,381.807C482.052,381.072 471.52,380.04 464.168,379.375L459.796,380.267L459.796,378.097L467.645,379.007C472.712,378.325 479.071,377.275 484.337,376.26L474.103,375.175Z" style="fill-rule:nonzero;"/>
                    <path d="M435.157,396.994L435.157,399.234C447.675,399.444 465.658,399.427 477.879,399.234L477.879,396.977C467.149,397.204 447.377,397.292 435.157,396.994ZM443.105,404.467L431.679,404.275C430.586,405.167 429.99,405.867 429.99,406.55C429.99,408.352 438.237,409.42 455.325,409.42C466.552,409.42 474.501,409.297 480.959,409.087L480.661,406.725C472.017,407.04 464.665,407.18 455.822,407.18C445.688,407.18 441.913,406.707 441.913,405.937C441.913,405.465 442.31,405.045 443.105,404.467ZM419.856,395.822L405.947,395.612C405.847,396.172 405.251,396.837 404.953,397.327C403.86,398.674 400.78,401.632 400.78,404.257C400.78,406.637 402.668,408.772 404.655,409.98L416.18,409.84C416.081,409.595 415.981,409.315 415.981,409.122C415.981,408.947 416.18,408.562 416.478,408.3C417.571,407.372 420.85,405.482 423.632,404.012L417.472,403.155C416.081,403.732 414.491,404.345 413.001,404.94C412.703,404.59 412.603,404.135 412.603,403.802C412.603,402.052 416.081,398.552 417.372,397.379C417.77,397.064 419.061,396.189 419.856,395.822Z" style="fill:rgb(35,31,32);fill-rule:nonzero;"/>
                </g>
                <g transform="matrix(2.4299,0,0,2.59829,4172.48,-139.832)">
                    <path d="M409.821,304.625C401.078,304.625 393.825,305.903 393.825,307.46C393.825,309.018 401.078,310.295 409.821,310.295C418.763,310.295 425.917,309.018 425.917,307.46C425.917,305.903 418.763,304.625 409.821,304.625ZM409.821,309.035C405.052,309.035 400.979,308.335 400.979,307.46C400.979,306.585 405.052,305.885 409.821,305.885C414.789,305.885 418.763,306.585 418.763,307.46C418.763,308.335 414.789,309.035 409.821,309.035Z" style="fill:rgb(35,31,32);fill-rule:nonzero;"/>
                </g>
                <g transform="matrix(1.83021,0,0,2.59829,4635.24,-607.408)">
                    <path d="M456.891,299.375L440.798,298.868C440.666,299.13 440.139,299.568 439.611,299.918L437.237,299.918C430.773,299.918 423.914,300.04 417.582,300.233L418.506,298.64C434.73,298.553 452.406,298.343 465.333,298.028L465.201,295.998C450.691,296.453 436.445,296.68 420.352,296.768L421.671,295.805C422.199,295.543 422.727,295.228 423.518,294.877L406.37,294.825C406.502,295.123 406.238,295.543 406.106,295.875L405.315,296.82L400.038,296.82C391.992,296.82 380.384,296.68 375.767,296.575L376.163,298.605C382.363,298.64 392.651,298.71 399.511,298.71L403.732,298.71C403.204,299.428 402.808,300.163 402.545,300.915C384.077,302.07 370.095,304.415 370.095,306.673C370.095,308.44 378.273,309.21 387.903,309.21C394.894,309.21 401.885,308.93 408.349,308.51L410.063,309.228L425.233,308.615C424.178,308.195 423.122,307.758 422.199,307.32C432.224,306.218 442.777,304.38 449.9,302C459.001,302.473 463.618,303.4 463.618,304.45C463.618,306.165 453.329,307.88 427.871,308.248L436.577,310.085C469.027,309.438 479.975,307.04 479.975,304.555C479.975,302.525 469.818,300.933 454.517,300.268L456.891,299.375ZM435.258,301.703C430.773,303.12 424.969,304.17 418.506,305.028C417.582,304.153 417.055,303.208 417.055,302.14L417.055,302.088C422.199,301.878 428.267,301.72 435.258,301.703ZM404.919,306.498C400.17,306.865 395.422,307.075 391.728,307.075C387.507,307.075 385.66,306.778 385.66,306.218C385.66,305.22 392.256,303.89 402.149,302.998C402.413,304.205 403.468,305.413 404.919,306.498Z" style="fill:rgb(35,31,32);fill-rule:nonzero;"/>
                    <path d="M473.907,321.3L483.273,319.462C476.545,318.815 460.189,317.625 450.691,317.082L442.249,318.815C451.219,319.357 466.256,320.495 473.907,321.3ZM436.709,326.148L436.709,326.498C436.709,327.46 433.939,328.143 424.837,328.143C417.582,328.143 413.493,327.688 413.493,327.04C413.493,326.428 418.374,325.973 426.024,325.973C429.718,325.973 433.279,326.043 436.709,326.148ZM451.219,320.372L434.73,320.372L436.181,324.293C433.147,324.258 430.245,324.223 427.08,324.223C408.744,324.223 397.928,325.535 397.928,327.25C397.928,329.175 410.855,330.138 427.211,330.138C445.943,330.138 452.67,328.878 452.67,327.25L452.67,327.075C459.925,327.653 465.861,328.388 470.478,328.948L479.315,327.075C472.588,326.27 463.354,325.395 452.01,324.835L451.219,322.612C451.087,321.842 450.823,321.107 451.219,320.372ZM420.352,314.93L402.149,314.685C401.885,315.595 400.434,316.645 398.587,317.607C394.498,317.66 390.541,317.677 386.584,317.677C381.703,317.677 374.712,317.642 369.04,317.555L370.227,319.585C375.899,319.637 381.307,319.655 386.716,319.655L393.575,319.637C387.771,321.527 377.086,324.1 366.665,325.815L382.626,326.9C393.311,324.923 404.523,321.86 410.855,319.41C419.693,319.235 427.871,319.007 433.939,318.797L433.411,316.767C428.267,316.977 422.067,317.17 415.604,317.327L420.352,314.93Z" style="fill:rgb(35,31,32);fill-rule:nonzero;"/>
                    <path d="M428.399,340.39L428.399,342.455C436.709,342.315 444.887,342.262 453.857,342.262C461.903,342.262 469.95,342.367 476.545,342.472L476.941,340.372C469.158,340.267 461.244,340.215 453.725,340.215C445.283,340.215 435.786,340.302 428.399,340.39ZM435.522,344.8L419.825,344.59C418.769,345.29 417.45,346.13 417.45,346.935C417.45,348.702 429.454,349.717 451.615,349.717C462.167,349.717 471.137,349.595 478.524,349.472L479.183,347.232C469.686,347.46 460.584,347.6 451.746,347.6C437.632,347.6 433.675,347.022 433.675,346.252C433.675,345.867 434.466,345.29 435.522,344.8ZM386.979,337.712C381.571,337.712 377.086,337.695 370.359,337.59L370.755,339.76C375.371,339.795 380.384,339.83 386.716,339.83L395.422,339.795L392.651,341.265C387.771,343.715 377.746,347.39 369.831,349.14L388.167,349.962C395.553,347.88 404.391,344.31 409.14,341.86L413.229,339.62C421.935,339.48 430.905,339.287 438.819,339.042L438.819,336.855C431.564,337.082 424.178,337.275 416.791,337.415L417.846,336.75C418.374,336.365 419.561,335.577 420.616,335.105L400.434,334.895C400.83,335.297 400.566,336.015 400.038,336.662L398.851,337.66C394.762,337.695 390.805,337.712 386.979,337.712Z" style="fill:rgb(35,31,32);fill-rule:nonzero;"/>
                    <path d="M416.923,358.325C415.472,359.777 412.965,361.265 409.931,362.56C404.523,364.922 399.379,366.025 393.839,366.025C388.694,366.025 383.418,365.167 383.418,363.4C383.418,361.475 395.158,358.92 416.923,358.325ZM434.862,358.272C452.67,358.675 462.563,360.477 462.563,362.892C462.563,365.447 449.372,367.057 432.488,367.582C428.926,367.687 425.233,367.792 420.22,367.862L430.113,369.945C463.354,369.262 480.371,366.655 480.371,362.962C480.371,359.147 459.793,356.137 427.08,356.137C392.915,356.137 366.534,359.585 366.534,363.627C366.534,366.585 378.669,368.72 393.311,368.72C407.689,368.72 419.033,366.55 426.948,363.015C430.773,361.37 433.015,359.76 434.862,358.272Z" style="fill:rgb(35,31,32);fill-rule:nonzero;"/>
                    <path d="M362.972,379.917L364.819,382.157C368.248,382.087 376.427,381.912 380.648,381.842L389.486,381.72L389.618,385.797C390.277,388.825 394.366,389.77 428.531,389.77C441.062,389.77 457.287,389.63 466.125,389.49L466.784,387.11C456.891,387.337 440.27,387.547 427.343,387.547C407.557,387.547 406.37,387.162 406.106,385.447C405.842,384.695 405.974,383.085 406.106,381.475C417.318,381.335 430.245,381.16 441.985,381.037C441.853,381.877 441.458,382.682 440.93,383.155C440.666,383.505 439.479,383.557 436.841,383.557C434.203,383.557 428.794,383.452 424.705,383.33L424.309,385.272C428.926,385.36 439.479,385.535 444.228,385.535C450.955,385.535 454.253,385.307 455.704,384.38C456.759,383.645 457.287,382.21 457.682,380.88L467.839,380.81C471.269,380.792 478.26,380.775 480.503,380.792L480.503,378.64C476.677,378.692 471.533,378.727 467.839,378.762L457.946,378.85L458.21,376.96C458.342,376.487 458.738,375.717 459.001,375.437L441.326,375.437C441.721,375.787 442.249,376.61 442.249,377.047L442.249,379.025L406.238,379.462L406.37,377.782C406.37,377.047 406.502,376.557 407.161,375.962L388.562,375.962C389.222,376.592 389.618,377.187 389.618,377.905L389.618,379.672L379.592,379.795C372.865,379.882 366.797,379.917 362.972,379.917Z" style="fill-rule:nonzero;"/>
                    <path d="M461.64,395.279L451.219,395.839C454.78,396.522 458.87,397.554 461.508,398.272L472.192,397.677C469.686,397.029 464.937,395.909 461.64,395.279ZM477.337,394.474L466.784,395.052C470.478,395.717 474.699,396.732 477.469,397.467L488.021,396.872C485.647,396.259 480.766,395.139 477.337,394.474ZM397.928,395.542L381.307,396.434C387.243,398.272 393.575,400.162 399.643,401.65C386.979,402.892 377.746,404.327 377.746,406.252C377.746,409.28 397.664,410.26 423.914,410.26C441.062,410.26 455.044,410.067 466.256,409.805L466.52,407.302C454.78,407.652 436.973,407.932 423.518,407.932C405.183,407.932 395.949,407.267 395.949,406.007C395.949,404.782 403.336,403.785 414.284,402.822C426.42,401.79 438.688,401.02 446.998,400.477C451.746,400.162 455.968,399.864 460.189,399.549L451.746,397.484C448.317,397.852 444.492,398.167 439.611,398.534C433.411,399.007 424.046,399.637 414.416,400.39C409.008,399.042 402.94,397.362 397.928,395.542Z" style="fill:rgb(35,31,32);fill-rule:nonzero;"/>
                    <path d="M405.71,415.227L387.639,415.122C387.639,415.594 387.243,416.294 386.584,416.959C384.737,418.762 382.89,420.932 382.89,422.559C382.89,423.732 383.814,424.799 384.605,425.482L400.83,425.342C400.038,424.519 399.906,423.959 400.17,423.487C400.83,421.177 414.416,418.079 429.982,418.079C441.062,418.079 447.789,419.584 447.789,422.279C447.789,426.514 427.211,427.792 397.928,428.387L407.953,430.417C442.909,429.577 465.729,427.214 465.729,422.262C465.729,418.412 451.483,416.032 433.147,416.032C418.242,416.032 406.766,417.502 400.434,418.867C401.225,417.887 403.864,416.084 405.71,415.227Z" style="fill:rgb(35,31,32);fill-rule:nonzero;"/>
                    <path d="M477.073,441.877L470.478,439.847C465.597,440.179 460.98,440.459 455.836,440.757C450.427,441.072 444.887,441.369 438.028,441.789C435.126,440.897 428.531,440.442 420.484,440.442C416.131,440.442 409.008,440.582 405.578,440.792C408.217,440.284 410.855,439.654 413.097,439.007C427.211,438.954 443.568,438.814 456.099,438.569L456.231,436.539C444.623,436.802 431.433,436.959 419.033,437.047C420.616,436.329 421.539,435.717 422.199,435.297L404.787,435.104C404.523,435.734 403.6,436.417 402.149,437.117L395.817,437.117C389.09,437.117 379.329,437.047 372.601,436.907L372.601,438.954C379.856,439.024 389.486,439.059 394.894,439.059L396.477,439.059C390.541,440.634 381.307,442.192 367.457,443.889L381.571,445.289C386.056,444.519 389.881,443.889 393.839,443.364C398.851,442.717 407.029,442.157 414.416,442.157C417.978,442.157 421.539,442.314 423.518,442.752C408.612,443.802 392.783,445.184 392.783,447.424C392.783,449.682 408.085,450.347 428.794,450.347C441.194,450.347 457.419,450.207 466.125,450.049L466.652,447.792C455.044,448.089 440.402,448.282 429.19,448.282C416.263,448.282 410.063,448.019 410.063,447.057C410.063,446.182 415.34,445.499 425.101,444.764C425.101,445.517 424.969,446.357 424.573,446.882L440.402,446.882L439.875,443.802C447.921,443.312 455.44,442.927 461.376,442.612C465.861,442.384 472.852,442.034 477.073,441.877Z" style="fill:rgb(35,31,32);fill-rule:nonzero;"/>
                </g>
            </g>
        </g>
    </g>
</svg>
