<?xml version="1.0" encoding="UTF-8" standalone="no"?><!DOCTYPE svg PUBLIC "-//W3C//DTD SVG 1.1//EN" "http://www.w3.org/Graphics/SVG/1.1/DTD/svg11.dtd"><svg width="504px" height="2316px" version="1.1" xmlns="http://www.w3.org/2000/svg" xmlns:xlink="http://www.w3.org/1999/xlink" xml:space="preserve" xmlns:serif="http://www.serif.com/" style="fill-rule:evenodd;clip-rule:evenodd;stroke-linejoin:round;stroke-miterlimit:2;"><g transform="matrix(0.24,0,0,0.24,3.6,-135.84)"><g transform="matrix(1,0,0,16.3237,0,0)"><g id="dec1_sp" transform="matrix(1.25123,0,0,0.406967,-6170.21,-28.1185)"><clipPath id="_clip1"><rect x="4919.91" y="154.383" width="1676.44" height="1452.45"/></clipPath><g clip-path="url(#_clip1)"><g transform="matrix(34.2582,0,0,6.45241,6021.84,421.502)"><path d="M17.2,-33C21.3,-27.5 22.7,-20.7 26.1,-15C29.5,-9.3 34.7,-4.7 35.8,0.6C36.8,5.9 33.6,11.7 30,17C26.4,22.3 22.4,27 17.3,32.1C12.2,37.1 6.1,42.5 0.1,42.4C-5.9,42.2 -11.8,36.5 -17.5,31.7C-23.2,27 -28.6,23.3 -30.8,18.2C-33,13.1 -32,6.5 -31.5,0.3C-31.1,-6 -31.2,-12.1 -28.3,-15.8C-25.3,-19.6 -19.1,-21.1 -13.9,-25.9C-8.7,-30.7 -4.3,-39 1.1,-40.9C6.6,-42.9 13.2,-38.6 17.2,-33Z" style="fill:none;fill-rule:nonzero;stroke:black;stroke-opacity:0.49;stroke-width:0.03px;"/></g><g transform="matrix(34.2582,0,0,6.45241,6117.19,472.289)"><path d="M17.2,-33C21.3,-27.5 22.7,-20.7 26.1,-15C29.5,-9.3 34.7,-4.7 35.8,0.6C36.8,5.9 33.6,11.7 30,17C26.4,22.3 22.4,27 17.3,32.1C12.2,37.1 6.1,42.5 0.1,42.4C-5.9,42.2 -11.8,36.5 -17.5,31.7C-23.2,27 -28.6,23.3 -30.8,18.2C-33,13.1 -32,6.5 -31.5,0.3C-31.1,-6 -31.2,-12.1 -28.3,-15.8C-25.3,-19.6 -19.1,-21.1 -13.9,-25.9C-8.7,-30.7 -4.3,-39 1.1,-40.9C6.6,-42.9 13.2,-38.6 17.2,-33Z" style="fill:none;fill-rule:nonzero;stroke:black;stroke-opacity:0.49;stroke-width:0.03px;"/></g><g transform="matrix(34.2582,0,0,6.45241,6212.55,523.077)"><path d="M17.2,-33C21.3,-27.5 22.7,-20.7 26.1,-15C29.5,-9.3 34.7,-4.7 35.8,0.6C36.8,5.9 33.6,11.7 30,17C26.4,22.3 22.4,27 17.3,32.1C12.2,37.1 6.1,42.5 0.1,42.4C-5.9,42.2 -11.8,36.5 -17.5,31.7C-23.2,27 -28.6,23.3 -30.8,18.2C-33,13.1 -32,6.5 -31.5,0.3C-31.1,-6 -31.2,-12.1 -28.3,-15.8C-25.3,-19.6 -19.1,-21.1 -13.9,-25.9C-8.7,-30.7 -4.3,-39 1.1,-40.9C6.6,-42.9 13.2,-38.6 17.2,-33Z" style="fill:none;fill-rule:nonzero;stroke:black;stroke-opacity:0.49;stroke-width:0.03px;"/></g><g transform="matrix(34.2582,0,0,6.45241,6307.9,573.864)"><path d="M17.2,-33C21.3,-27.5 22.7,-20.7 26.1,-15C29.5,-9.3 34.7,-4.7 35.8,0.6C36.8,5.9 33.6,11.7 30,17C26.4,22.3 22.4,27 17.3,32.1C12.2,37.1 6.1,42.5 0.1,42.4C-5.9,42.2 -11.8,36.5 -17.5,31.7C-23.2,27 -28.6,23.3 -30.8,18.2C-33,13.1 -32,6.5 -31.5,0.3C-31.1,-6 -31.2,-12.1 -28.3,-15.8C-25.3,-19.6 -19.1,-21.1 -13.9,-25.9C-8.7,-30.7 -4.3,-39 1.1,-40.9C6.6,-42.9 13.2,-38.6 17.2,-33Z" style="fill:none;fill-rule:nonzero;stroke:black;stroke-opacity:0.49;stroke-width:0.03px;"/></g><g transform="matrix(34.2582,0,0,6.45241,6403.26,624.651)"><path d="M17.2,-33C21.3,-27.5 22.7,-20.7 26.1,-15C29.5,-9.3 34.7,-4.7 35.8,0.6C36.8,5.9 33.6,11.7 30,17C26.4,22.3 22.4,27 17.3,32.1C12.2,37.1 6.1,42.5 0.1,42.4C-5.9,42.2 -11.8,36.5 -17.5,31.7C-23.2,27 -28.6,23.3 -30.8,18.2C-33,13.1 -32,6.5 -31.5,0.3C-31.1,-6 -31.2,-12.1 -28.3,-15.8C-25.3,-19.6 -19.1,-21.1 -13.9,-25.9C-8.7,-30.7 -4.3,-39 1.1,-40.9C6.6,-42.9 13.2,-38.6 17.2,-33Z" style="fill:none;fill-rule:nonzero;stroke:black;stroke-opacity:0.49;stroke-width:0.03px;"/></g><g transform="matrix(34.2582,0,0,6.45241,6498.61,675.438)"><path d="M17.2,-33C21.3,-27.5 22.7,-20.7 26.1,-15C29.5,-9.3 34.7,-4.7 35.8,0.6C36.8,5.9 33.6,11.7 30,17C26.4,22.3 22.4,27 17.3,32.1C12.2,37.1 6.1,42.5 0.1,42.4C-5.9,42.2 -11.8,36.5 -17.5,31.7C-23.2,27 -28.6,23.3 -30.8,18.2C-33,13.1 -32,6.5 -31.5,0.3C-31.1,-6 -31.2,-12.1 -28.3,-15.8C-25.3,-19.6 -19.1,-21.1 -13.9,-25.9C-8.7,-30.7 -4.3,-39 1.1,-40.9C6.6,-42.9 13.2,-38.6 17.2,-33Z" style="fill:none;fill-rule:nonzero;stroke:black;stroke-opacity:0.49;stroke-width:0.03px;"/></g><g transform="matrix(34.2582,0,0,6.45241,6593.96,726.225)"><path d="M17.2,-33C21.3,-27.5 22.7,-20.7 26.1,-15C29.5,-9.3 34.7,-4.7 35.8,0.6C36.8,5.9 33.6,11.7 30,17C26.4,22.3 22.4,27 17.3,32.1C12.2,37.1 6.1,42.5 0.1,42.4C-5.9,42.2 -11.8,36.5 -17.5,31.7C-23.2,27 -28.6,23.3 -30.8,18.2C-33,13.1 -32,6.5 -31.5,0.3C-31.1,-6 -31.2,-12.1 -28.3,-15.8C-25.3,-19.6 -19.1,-21.1 -13.9,-25.9C-8.7,-30.7 -4.3,-39 1.1,-40.9C6.6,-42.9 13.2,-38.6 17.2,-33Z" style="fill:none;fill-rule:nonzero;stroke:black;stroke-opacity:0.49;stroke-width:0.03px;"/></g><g transform="matrix(34.2582,0,0,6.45241,6689.32,777.013)"><path d="M17.2,-33C21.3,-27.5 22.7,-20.7 26.1,-15C29.5,-9.3 34.7,-4.7 35.8,0.6C36.8,5.9 33.6,11.7 30,17C26.4,22.3 22.4,27 17.3,32.1C12.2,37.1 6.1,42.5 0.1,42.4C-5.9,42.2 -11.8,36.5 -17.5,31.7C-23.2,27 -28.6,23.3 -30.8,18.2C-33,13.1 -32,6.5 -31.5,0.3C-31.1,-6 -31.2,-12.1 -28.3,-15.8C-25.3,-19.6 -19.1,-21.1 -13.9,-25.9C-8.7,-30.7 -4.3,-39 1.1,-40.9C6.6,-42.9 13.2,-38.6 17.2,-33Z" style="fill:none;fill-rule:nonzero;stroke:black;stroke-opacity:0.49;stroke-width:0.03px;"/></g><g transform="matrix(34.2582,0,0,6.45241,6784.67,827.8)"><path d="M17.2,-33C21.3,-27.5 22.7,-20.7 26.1,-15C29.5,-9.3 34.7,-4.7 35.8,0.6C36.8,5.9 33.6,11.7 30,17C26.4,22.3 22.4,27 17.3,32.1C12.2,37.1 6.1,42.5 0.1,42.4C-5.9,42.2 -11.8,36.5 -17.5,31.7C-23.2,27 -28.6,23.3 -30.8,18.2C-33,13.1 -32,6.5 -31.5,0.3C-31.1,-6 -31.2,-12.1 -28.3,-15.8C-25.3,-19.6 -19.1,-21.1 -13.9,-25.9C-8.7,-30.7 -4.3,-39 1.1,-40.9C6.6,-42.9 13.2,-38.6 17.2,-33Z" style="fill:none;fill-rule:nonzero;stroke:black;stroke-opacity:0.49;stroke-width:0.03px;"/></g><g transform="matrix(34.2582,0,0,6.45241,6880.02,878.587)"><path d="M17.2,-33C21.3,-27.5 22.7,-20.7 26.1,-15C29.5,-9.3 34.7,-4.7 35.8,0.6C36.8,5.9 33.6,11.7 30,17C26.4,22.3 22.4,27 17.3,32.1C12.2,37.1 6.1,42.5 0.1,42.4C-5.9,42.2 -11.8,36.5 -17.5,31.7C-23.2,27 -28.6,23.3 -30.8,18.2C-33,13.1 -32,6.5 -31.5,0.3C-31.1,-6 -31.2,-12.1 -28.3,-15.8C-25.3,-19.6 -19.1,-21.1 -13.9,-25.9C-8.7,-30.7 -4.3,-39 1.1,-40.9C6.6,-42.9 13.2,-38.6 17.2,-33Z" style="fill:none;fill-rule:nonzero;stroke:black;stroke-opacity:0.49;stroke-width:0.03px;"/></g><g transform="matrix(34.2582,0,0,6.45241,6975.38,929.374)"><path d="M17.2,-33C21.3,-27.5 22.7,-20.7 26.1,-15C29.5,-9.3 34.7,-4.7 35.8,0.6C36.8,5.9 33.6,11.7 30,17C26.4,22.3 22.4,27 17.3,32.1C12.2,37.1 6.1,42.5 0.1,42.4C-5.9,42.2 -11.8,36.5 -17.5,31.7C-23.2,27 -28.6,23.3 -30.8,18.2C-33,13.1 -32,6.5 -31.5,0.3C-31.1,-6 -31.2,-12.1 -28.3,-15.8C-25.3,-19.6 -19.1,-21.1 -13.9,-25.9C-8.7,-30.7 -4.3,-39 1.1,-40.9C6.6,-42.9 13.2,-38.6 17.2,-33Z" style="fill:none;fill-rule:nonzero;stroke:black;stroke-opacity:0.49;stroke-width:0.03px;"/></g><g transform="matrix(34.2582,0,0,6.45241,7070.73,980.162)"><path d="M17.2,-33C21.3,-27.5 22.7,-20.7 26.1,-15C29.5,-9.3 34.7,-4.7 35.8,0.6C36.8,5.9 33.6,11.7 30,17C26.4,22.3 22.4,27 17.3,32.1C12.2,37.1 6.1,42.5 0.1,42.4C-5.9,42.2 -11.8,36.5 -17.5,31.7C-23.2,27 -28.6,23.3 -30.8,18.2C-33,13.1 -32,6.5 -31.5,0.3C-31.1,-6 -31.2,-12.1 -28.3,-15.8C-25.3,-19.6 -19.1,-21.1 -13.9,-25.9C-8.7,-30.7 -4.3,-39 1.1,-40.9C6.6,-42.9 13.2,-38.6 17.2,-33Z" style="fill:none;fill-rule:nonzero;stroke:black;stroke-opacity:0.49;stroke-width:0.03px;"/></g><g transform="matrix(34.2582,0,0,6.45241,7166.09,1030.95)"><path d="M17.2,-33C21.3,-27.5 22.7,-20.7 26.1,-15C29.5,-9.3 34.7,-4.7 35.8,0.6C36.8,5.9 33.6,11.7 30,17C26.4,22.3 22.4,27 17.3,32.1C12.2,37.1 6.1,42.5 0.1,42.4C-5.9,42.2 -11.8,36.5 -17.5,31.7C-23.2,27 -28.6,23.3 -30.8,18.2C-33,13.1 -32,6.5 -31.5,0.3C-31.1,-6 -31.2,-12.1 -28.3,-15.8C-25.3,-19.6 -19.1,-21.1 -13.9,-25.9C-8.7,-30.7 -4.3,-39 1.1,-40.9C6.6,-42.9 13.2,-38.6 17.2,-33Z" style="fill:none;fill-rule:nonzero;stroke:black;stroke-opacity:0.49;stroke-width:0.03px;"/></g><g transform="matrix(34.2582,0,0,6.45241,7261.44,1081.74)"><path d="M17.2,-33C21.3,-27.5 22.7,-20.7 26.1,-15C29.5,-9.3 34.7,-4.7 35.8,0.6C36.8,5.9 33.6,11.7 30,17C26.4,22.3 22.4,27 17.3,32.1C12.2,37.1 6.1,42.5 0.1,42.4C-5.9,42.2 -11.8,36.5 -17.5,31.7C-23.2,27 -28.6,23.3 -30.8,18.2C-33,13.1 -32,6.5 -31.5,0.3C-31.1,-6 -31.2,-12.1 -28.3,-15.8C-25.3,-19.6 -19.1,-21.1 -13.9,-25.9C-8.7,-30.7 -4.3,-39 1.1,-40.9C6.6,-42.9 13.2,-38.6 17.2,-33Z" style="fill:none;fill-rule:nonzero;stroke:black;stroke-opacity:0.49;stroke-width:0.03px;"/></g><g transform="matrix(34.2582,0,0,6.45241,7356.79,1132.52)"><path d="M17.2,-33C21.3,-27.5 22.7,-20.7 26.1,-15C29.5,-9.3 34.7,-4.7 35.8,0.6C36.8,5.9 33.6,11.7 30,17C26.4,22.3 22.4,27 17.3,32.1C12.2,37.1 6.1,42.5 0.1,42.4C-5.9,42.2 -11.8,36.5 -17.5,31.7C-23.2,27 -28.6,23.3 -30.8,18.2C-33,13.1 -32,6.5 -31.5,0.3C-31.1,-6 -31.2,-12.1 -28.3,-15.8C-25.3,-19.6 -19.1,-21.1 -13.9,-25.9C-8.7,-30.7 -4.3,-39 1.1,-40.9C6.6,-42.9 13.2,-38.6 17.2,-33Z" style="fill:none;fill-rule:nonzero;stroke:black;stroke-opacity:0.49;stroke-width:0.03px;"/></g><g transform="matrix(34.2582,0,0,6.45241,7452.15,1183.31)"><path d="M17.2,-33C21.3,-27.5 22.7,-20.7 26.1,-15C29.5,-9.3 34.7,-4.7 35.8,0.6C36.8,5.9 33.6,11.7 30,17C26.4,22.3 22.4,27 17.3,32.1C12.2,37.1 6.1,42.5 0.1,42.4C-5.9,42.2 -11.8,36.5 -17.5,31.7C-23.2,27 -28.6,23.3 -30.8,18.2C-33,13.1 -32,6.5 -31.5,0.3C-31.1,-6 -31.2,-12.1 -28.3,-15.8C-25.3,-19.6 -19.1,-21.1 -13.9,-25.9C-8.7,-30.7 -4.3,-39 1.1,-40.9C6.6,-42.9 13.2,-38.6 17.2,-33Z" style="fill:none;fill-rule:nonzero;stroke:black;stroke-opacity:0.49;stroke-width:0.03px;"/></g><g transform="matrix(34.2582,0,0,6.45241,7547.5,1234.1)"><path d="M17.2,-33C21.3,-27.5 22.7,-20.7 26.1,-15C29.5,-9.3 34.7,-4.7 35.8,0.6C36.8,5.9 33.6,11.7 30,17C26.4,22.3 22.4,27 17.3,32.1C12.2,37.1 6.1,42.5 0.1,42.4C-5.9,42.2 -11.8,36.5 -17.5,31.7C-23.2,27 -28.6,23.3 -30.8,18.2C-33,13.1 -32,6.5 -31.5,0.3C-31.1,-6 -31.2,-12.1 -28.3,-15.8C-25.3,-19.6 -19.1,-21.1 -13.9,-25.9C-8.7,-30.7 -4.3,-39 1.1,-40.9C6.6,-42.9 13.2,-38.6 17.2,-33Z" style="fill:none;fill-rule:nonzero;stroke:black;stroke-opacity:0.49;stroke-width:0.03px;"/></g><g transform="matrix(34.2582,0,0,6.45241,7642.86,1284.88)"><path d="M17.2,-33C21.3,-27.5 22.7,-20.7 26.1,-15C29.5,-9.3 34.7,-4.7 35.8,0.6C36.8,5.9 33.6,11.7 30,17C26.4,22.3 22.4,27 17.3,32.1C12.2,37.1 6.1,42.5 0.1,42.4C-5.9,42.2 -11.8,36.5 -17.5,31.7C-23.2,27 -28.6,23.3 -30.8,18.2C-33,13.1 -32,6.5 -31.5,0.3C-31.1,-6 -31.2,-12.1 -28.3,-15.8C-25.3,-19.6 -19.1,-21.1 -13.9,-25.9C-8.7,-30.7 -4.3,-39 1.1,-40.9C6.6,-42.9 13.2,-38.6 17.2,-33Z" style="fill:none;fill-rule:nonzero;stroke:black;stroke-opacity:0.49;stroke-width:0.03px;"/></g></g></g></g></g></svg>