<?xml version="1.0" encoding="UTF-8" standalone="no"?><!DOCTYPE svg PUBLIC "-//W3C//DTD SVG 1.1//EN" "http://www.w3.org/Graphics/SVG/1.1/DTD/svg11.dtd"><svg width="489px" height="2798px" version="1.1" xmlns="http://www.w3.org/2000/svg" xmlns:xlink="http://www.w3.org/1999/xlink" xml:space="preserve" xmlns:serif="http://www.serif.com/" style="fill-rule:evenodd;clip-rule:evenodd;stroke-linejoin:round;stroke-miterlimit:2;"><g transform="matrix(0.24,0,0,0.24,4.8,-6438.24)"><g transform="matrix(1,0,0,16.3237,0,0)"><g id="dec2_sp" transform="matrix(0.464851,0,0,0.151194,-1584.47,1221.01)"><clipPath id="_clip1"><rect x="3366.02" y="2793.62" width="4373.97" height="4723.22"/></clipPath><g clip-path="url(#_clip1)"><g transform="matrix(106.619,0,0,20.0813,4644.7,3564.92)"><path d="M16.8,-32.1C20,-27.2 19.8,-19.2 21.1,-13.4C22.3,-7.6 24.9,-3.8 26.9,1.2C28.9,6.1 30.2,12.2 27.5,15.4C24.8,18.7 18.1,19.2 12.8,20.4C7.6,21.7 3.8,23.7 -1.8,26.9C-7.4,30.1 -14.9,34.4 -19.5,32.7C-24.1,31.1 -25.9,23.5 -25.9,17.1C-26,10.6 -24.3,5.3 -24.9,-0.4C-25.6,-6.1 -28.6,-12.1 -27.7,-17.1C-26.8,-22.1 -22,-26 -16.7,-29.8C-11.5,-33.6 -5.7,-37.3 0.5,-38.2C6.7,-39.1 13.5,-37.1 16.8,-32.1Z" style="fill:url(#_Linear2);fill-rule:nonzero;stroke:white;stroke-opacity:0.66;stroke-width:0.02px;"/></g><g transform="matrix(106.619,0,0,20.0813,4498.84,3656.25)"><path d="M16.8,-32.1C20,-27.2 19.8,-19.2 21.1,-13.4C22.3,-7.6 24.9,-3.8 26.9,1.2C28.9,6.1 30.2,12.2 27.5,15.4C24.8,18.7 18.1,19.2 12.8,20.4C7.6,21.7 3.8,23.7 -1.8,26.9C-7.4,30.1 -14.9,34.4 -19.5,32.7C-24.1,31.1 -25.9,23.5 -25.9,17.1C-26,10.6 -24.3,5.3 -24.9,-0.4C-25.6,-6.1 -28.6,-12.1 -27.7,-17.1C-26.8,-22.1 -22,-26 -16.7,-29.8C-11.5,-33.6 -5.7,-37.3 0.5,-38.2C6.7,-39.1 13.5,-37.1 16.8,-32.1Z" style="fill:url(#_Linear3);fill-rule:nonzero;stroke:white;stroke-opacity:0.66;stroke-width:0.02px;"/></g><g transform="matrix(106.619,0,0,20.0813,4352.98,3747.57)"><path d="M16.8,-32.1C20,-27.2 19.8,-19.2 21.1,-13.4C22.3,-7.6 24.9,-3.8 26.9,1.2C28.9,6.1 30.2,12.2 27.5,15.4C24.8,18.7 18.1,19.2 12.8,20.4C7.6,21.7 3.8,23.7 -1.8,26.9C-7.4,30.1 -14.9,34.4 -19.5,32.7C-24.1,31.1 -25.9,23.5 -25.9,17.1C-26,10.6 -24.3,5.3 -24.9,-0.4C-25.6,-6.1 -28.6,-12.1 -27.7,-17.1C-26.8,-22.1 -22,-26 -16.7,-29.8C-11.5,-33.6 -5.7,-37.3 0.5,-38.2C6.7,-39.1 13.5,-37.1 16.8,-32.1Z" style="fill:url(#_Linear4);fill-rule:nonzero;stroke:white;stroke-opacity:0.66;stroke-width:0.02px;"/></g><g transform="matrix(106.619,0,0,20.0813,4207.12,3838.89)"><path d="M16.8,-32.1C20,-27.2 19.8,-19.2 21.1,-13.4C22.3,-7.6 24.9,-3.8 26.9,1.2C28.9,6.1 30.2,12.2 27.5,15.4C24.8,18.7 18.1,19.2 12.8,20.4C7.6,21.7 3.8,23.7 -1.8,26.9C-7.4,30.1 -14.9,34.4 -19.5,32.7C-24.1,31.1 -25.9,23.5 -25.9,17.1C-26,10.6 -24.3,5.3 -24.9,-0.4C-25.6,-6.1 -28.6,-12.1 -27.7,-17.1C-26.8,-22.1 -22,-26 -16.7,-29.8C-11.5,-33.6 -5.7,-37.3 0.5,-38.2C6.7,-39.1 13.5,-37.1 16.8,-32.1Z" style="fill:url(#_Linear5);fill-rule:nonzero;stroke:white;stroke-opacity:0.66;stroke-width:0.02px;"/></g><g transform="matrix(106.619,0,0,20.0813,4061.26,3930.21)"><path d="M16.8,-32.1C20,-27.2 19.8,-19.2 21.1,-13.4C22.3,-7.6 24.9,-3.8 26.9,1.2C28.9,6.1 30.2,12.2 27.5,15.4C24.8,18.7 18.1,19.2 12.8,20.4C7.6,21.7 3.8,23.7 -1.8,26.9C-7.4,30.1 -14.9,34.4 -19.5,32.7C-24.1,31.1 -25.9,23.5 -25.9,17.1C-26,10.6 -24.3,5.3 -24.9,-0.4C-25.6,-6.1 -28.6,-12.1 -27.7,-17.1C-26.8,-22.1 -22,-26 -16.7,-29.8C-11.5,-33.6 -5.7,-37.3 0.5,-38.2C6.7,-39.1 13.5,-37.1 16.8,-32.1Z" style="fill:url(#_Linear6);fill-rule:nonzero;stroke:white;stroke-opacity:0.66;stroke-width:0.02px;"/></g><g transform="matrix(106.619,0,0,20.0813,3915.4,4021.53)"><path d="M16.8,-32.1C20,-27.2 19.8,-19.2 21.1,-13.4C22.3,-7.6 24.9,-3.8 26.9,1.2C28.9,6.1 30.2,12.2 27.5,15.4C24.8,18.7 18.1,19.2 12.8,20.4C7.6,21.7 3.8,23.7 -1.8,26.9C-7.4,30.1 -14.9,34.4 -19.5,32.7C-24.1,31.1 -25.9,23.5 -25.9,17.1C-26,10.6 -24.3,5.3 -24.9,-0.4C-25.6,-6.1 -28.6,-12.1 -27.7,-17.1C-26.8,-22.1 -22,-26 -16.7,-29.8C-11.5,-33.6 -5.7,-37.3 0.5,-38.2C6.7,-39.1 13.5,-37.1 16.8,-32.1Z" style="fill:url(#_Linear7);fill-rule:nonzero;stroke:white;stroke-opacity:0.66;stroke-width:0.02px;"/></g><g transform="matrix(106.619,0,0,20.0813,3769.54,4112.85)"><path d="M16.8,-32.1C20,-27.2 19.8,-19.2 21.1,-13.4C22.3,-7.6 24.9,-3.8 26.9,1.2C28.9,6.1 30.2,12.2 27.5,15.4C24.8,18.7 18.1,19.2 12.8,20.4C7.6,21.7 3.8,23.7 -1.8,26.9C-7.4,30.1 -14.9,34.4 -19.5,32.7C-24.1,31.1 -25.9,23.5 -25.9,17.1C-26,10.6 -24.3,5.3 -24.9,-0.4C-25.6,-6.1 -28.6,-12.1 -27.7,-17.1C-26.8,-22.1 -22,-26 -16.7,-29.8C-11.5,-33.6 -5.7,-37.3 0.5,-38.2C6.7,-39.1 13.5,-37.1 16.8,-32.1Z" style="fill:url(#_Linear8);fill-rule:nonzero;stroke:white;stroke-opacity:0.66;stroke-width:0.02px;"/></g><g transform="matrix(106.619,0,0,20.0813,3623.68,4204.17)"><path d="M16.8,-32.1C20,-27.2 19.8,-19.2 21.1,-13.4C22.3,-7.6 24.9,-3.8 26.9,1.2C28.9,6.1 30.2,12.2 27.5,15.4C24.8,18.7 18.1,19.2 12.8,20.4C7.6,21.7 3.8,23.7 -1.8,26.9C-7.4,30.1 -14.9,34.4 -19.5,32.7C-24.1,31.1 -25.9,23.5 -25.9,17.1C-26,10.6 -24.3,5.3 -24.9,-0.4C-25.6,-6.1 -28.6,-12.1 -27.7,-17.1C-26.8,-22.1 -22,-26 -16.7,-29.8C-11.5,-33.6 -5.7,-37.3 0.5,-38.2C6.7,-39.1 13.5,-37.1 16.8,-32.1Z" style="fill:url(#_Linear9);fill-rule:nonzero;stroke:white;stroke-opacity:0.66;stroke-width:0.02px;"/></g><g transform="matrix(106.619,0,0,20.0813,3477.81,4295.49)"><path d="M16.8,-32.1C20,-27.2 19.8,-19.2 21.1,-13.4C22.3,-7.6 24.9,-3.8 26.9,1.2C28.9,6.1 30.2,12.2 27.5,15.4C24.8,18.7 18.1,19.2 12.8,20.4C7.6,21.7 3.8,23.7 -1.8,26.9C-7.4,30.1 -14.9,34.4 -19.5,32.7C-24.1,31.1 -25.9,23.5 -25.9,17.1C-26,10.6 -24.3,5.3 -24.9,-0.4C-25.6,-6.1 -28.6,-12.1 -27.7,-17.1C-26.8,-22.1 -22,-26 -16.7,-29.8C-11.5,-33.6 -5.7,-37.3 0.5,-38.2C6.7,-39.1 13.5,-37.1 16.8,-32.1Z" style="fill:url(#_Linear10);fill-rule:nonzero;stroke:white;stroke-opacity:0.66;stroke-width:0.02px;"/></g><g transform="matrix(106.619,0,0,20.0813,3331.95,4386.81)"><path d="M16.8,-32.1C20,-27.2 19.8,-19.2 21.1,-13.4C22.3,-7.6 24.9,-3.8 26.9,1.2C28.9,6.1 30.2,12.2 27.5,15.4C24.8,18.7 18.1,19.2 12.8,20.4C7.6,21.7 3.8,23.7 -1.8,26.9C-7.4,30.1 -14.9,34.4 -19.5,32.7C-24.1,31.1 -25.9,23.5 -25.9,17.1C-26,10.6 -24.3,5.3 -24.9,-0.4C-25.6,-6.1 -28.6,-12.1 -27.7,-17.1C-26.8,-22.1 -22,-26 -16.7,-29.8C-11.5,-33.6 -5.7,-37.3 0.5,-38.2C6.7,-39.1 13.5,-37.1 16.8,-32.1Z" style="fill:url(#_Linear11);fill-rule:nonzero;stroke:white;stroke-opacity:0.66;stroke-width:0.02px;"/></g><g transform="matrix(106.619,0,0,20.0813,3186.09,4478.13)"><path d="M16.8,-32.1C20,-27.2 19.8,-19.2 21.1,-13.4C22.3,-7.6 24.9,-3.8 26.9,1.2C28.9,6.1 30.2,12.2 27.5,15.4C24.8,18.7 18.1,19.2 12.8,20.4C7.6,21.7 3.8,23.7 -1.8,26.9C-7.4,30.1 -14.9,34.4 -19.5,32.7C-24.1,31.1 -25.9,23.5 -25.9,17.1C-26,10.6 -24.3,5.3 -24.9,-0.4C-25.6,-6.1 -28.6,-12.1 -27.7,-17.1C-26.8,-22.1 -22,-26 -16.7,-29.8C-11.5,-33.6 -5.7,-37.3 0.5,-38.2C6.7,-39.1 13.5,-37.1 16.8,-32.1Z" style="fill:url(#_Linear12);fill-rule:nonzero;stroke:white;stroke-opacity:0.66;stroke-width:0.02px;"/></g><g transform="matrix(106.619,0,0,20.0813,3040.23,4569.45)"><path d="M16.8,-32.1C20,-27.2 19.8,-19.2 21.1,-13.4C22.3,-7.6 24.9,-3.8 26.9,1.2C28.9,6.1 30.2,12.2 27.5,15.4C24.8,18.7 18.1,19.2 12.8,20.4C7.6,21.7 3.8,23.7 -1.8,26.9C-7.4,30.1 -14.9,34.4 -19.5,32.7C-24.1,31.1 -25.9,23.5 -25.9,17.1C-26,10.6 -24.3,5.3 -24.9,-0.4C-25.6,-6.1 -28.6,-12.1 -27.7,-17.1C-26.8,-22.1 -22,-26 -16.7,-29.8C-11.5,-33.6 -5.7,-37.3 0.5,-38.2C6.7,-39.1 13.5,-37.1 16.8,-32.1Z" style="fill:url(#_Linear13);fill-rule:nonzero;stroke:white;stroke-opacity:0.66;stroke-width:0.02px;"/></g><g transform="matrix(106.619,0,0,20.0813,2894.37,4660.77)"><path d="M16.8,-32.1C20,-27.2 19.8,-19.2 21.1,-13.4C22.3,-7.6 24.9,-3.8 26.9,1.2C28.9,6.1 30.2,12.2 27.5,15.4C24.8,18.7 18.1,19.2 12.8,20.4C7.6,21.7 3.8,23.7 -1.8,26.9C-7.4,30.1 -14.9,34.4 -19.5,32.7C-24.1,31.1 -25.9,23.5 -25.9,17.1C-26,10.6 -24.3,5.3 -24.9,-0.4C-25.6,-6.1 -28.6,-12.1 -27.7,-17.1C-26.8,-22.1 -22,-26 -16.7,-29.8C-11.5,-33.6 -5.7,-37.3 0.5,-38.2C6.7,-39.1 13.5,-37.1 16.8,-32.1Z" style="fill:url(#_Linear14);fill-rule:nonzero;stroke:white;stroke-opacity:0.66;stroke-width:0.02px;"/></g><g transform="matrix(106.619,0,0,20.0813,2748.51,4752.09)"><path d="M16.8,-32.1C20,-27.2 19.8,-19.2 21.1,-13.4C22.3,-7.6 24.9,-3.8 26.9,1.2C28.9,6.1 30.2,12.2 27.5,15.4C24.8,18.7 18.1,19.2 12.8,20.4C7.6,21.7 3.8,23.7 -1.8,26.9C-7.4,30.1 -14.9,34.4 -19.5,32.7C-24.1,31.1 -25.9,23.5 -25.9,17.1C-26,10.6 -24.3,5.3 -24.9,-0.4C-25.6,-6.1 -28.6,-12.1 -27.7,-17.1C-26.8,-22.1 -22,-26 -16.7,-29.8C-11.5,-33.6 -5.7,-37.3 0.5,-38.2C6.7,-39.1 13.5,-37.1 16.8,-32.1Z" style="fill:url(#_Linear15);fill-rule:nonzero;stroke:white;stroke-opacity:0.66;stroke-width:0.02px;"/></g><g transform="matrix(106.619,0,0,20.0813,2602.65,4843.41)"><path d="M16.8,-32.1C20,-27.2 19.8,-19.2 21.1,-13.4C22.3,-7.6 24.9,-3.8 26.9,1.2C28.9,6.1 30.2,12.2 27.5,15.4C24.8,18.7 18.1,19.2 12.8,20.4C7.6,21.7 3.8,23.7 -1.8,26.9C-7.4,30.1 -14.9,34.4 -19.5,32.7C-24.1,31.1 -25.9,23.5 -25.9,17.1C-26,10.6 -24.3,5.3 -24.9,-0.4C-25.6,-6.1 -28.6,-12.1 -27.7,-17.1C-26.8,-22.1 -22,-26 -16.7,-29.8C-11.5,-33.6 -5.7,-37.3 0.5,-38.2C6.7,-39.1 13.5,-37.1 16.8,-32.1Z" style="fill:url(#_Linear16);fill-rule:nonzero;stroke:white;stroke-opacity:0.66;stroke-width:0.02px;"/></g><g transform="matrix(106.619,0,0,20.0813,2456.79,4934.73)"><path d="M16.8,-32.1C20,-27.2 19.8,-19.2 21.1,-13.4C22.3,-7.6 24.9,-3.8 26.9,1.2C28.9,6.1 30.2,12.2 27.5,15.4C24.8,18.7 18.1,19.2 12.8,20.4C7.6,21.7 3.8,23.7 -1.8,26.9C-7.4,30.1 -14.9,34.4 -19.5,32.7C-24.1,31.1 -25.9,23.5 -25.9,17.1C-26,10.6 -24.3,5.3 -24.9,-0.4C-25.6,-6.1 -28.6,-12.1 -27.7,-17.1C-26.8,-22.1 -22,-26 -16.7,-29.8C-11.5,-33.6 -5.7,-37.3 0.5,-38.2C6.7,-39.1 13.5,-37.1 16.8,-32.1Z" style="fill:url(#_Linear17);fill-rule:nonzero;stroke:white;stroke-opacity:0.66;stroke-width:0.02px;"/></g><g transform="matrix(106.619,0,0,20.0813,2310.93,5026.05)"><path d="M16.8,-32.1C20,-27.2 19.8,-19.2 21.1,-13.4C22.3,-7.6 24.9,-3.8 26.9,1.2C28.9,6.1 30.2,12.2 27.5,15.4C24.8,18.7 18.1,19.2 12.8,20.4C7.6,21.7 3.8,23.7 -1.8,26.9C-7.4,30.1 -14.9,34.4 -19.5,32.7C-24.1,31.1 -25.9,23.5 -25.9,17.1C-26,10.6 -24.3,5.3 -24.9,-0.4C-25.6,-6.1 -28.6,-12.1 -27.7,-17.1C-26.8,-22.1 -22,-26 -16.7,-29.8C-11.5,-33.6 -5.7,-37.3 0.5,-38.2C6.7,-39.1 13.5,-37.1 16.8,-32.1Z" style="fill:url(#_Linear18);fill-rule:nonzero;stroke:white;stroke-opacity:0.66;stroke-width:0.02px;"/></g><g transform="matrix(106.619,0,0,20.0813,2165.07,5117.38)"><path d="M16.8,-32.1C20,-27.2 19.8,-19.2 21.1,-13.4C22.3,-7.6 24.9,-3.8 26.9,1.2C28.9,6.1 30.2,12.2 27.5,15.4C24.8,18.7 18.1,19.2 12.8,20.4C7.6,21.7 3.8,23.7 -1.8,26.9C-7.4,30.1 -14.9,34.4 -19.5,32.7C-24.1,31.1 -25.9,23.5 -25.9,17.1C-26,10.6 -24.3,5.3 -24.9,-0.4C-25.6,-6.1 -28.6,-12.1 -27.7,-17.1C-26.8,-22.1 -22,-26 -16.7,-29.8C-11.5,-33.6 -5.7,-37.3 0.5,-38.2C6.7,-39.1 13.5,-37.1 16.8,-32.1Z" style="fill:url(#_Linear19);fill-rule:nonzero;stroke:white;stroke-opacity:0.66;stroke-width:0.02px;"/></g><g transform="matrix(106.619,0,0,20.0813,2019.21,5208.7)"><path d="M16.8,-32.1C20,-27.2 19.8,-19.2 21.1,-13.4C22.3,-7.6 24.9,-3.8 26.9,1.2C28.9,6.1 30.2,12.2 27.5,15.4C24.8,18.7 18.1,19.2 12.8,20.4C7.6,21.7 3.8,23.7 -1.8,26.9C-7.4,30.1 -14.9,34.4 -19.5,32.7C-24.1,31.1 -25.9,23.5 -25.9,17.1C-26,10.6 -24.3,5.3 -24.9,-0.4C-25.6,-6.1 -28.6,-12.1 -27.7,-17.1C-26.8,-22.1 -22,-26 -16.7,-29.8C-11.5,-33.6 -5.7,-37.3 0.5,-38.2C6.7,-39.1 13.5,-37.1 16.8,-32.1Z" style="fill:url(#_Linear20);fill-rule:nonzero;stroke:white;stroke-opacity:0.66;stroke-width:0.02px;"/></g><g transform="matrix(106.619,0,0,20.0813,1873.35,5300.02)"><path d="M16.8,-32.1C20,-27.2 19.8,-19.2 21.1,-13.4C22.3,-7.6 24.9,-3.8 26.9,1.2C28.9,6.1 30.2,12.2 27.5,15.4C24.8,18.7 18.1,19.2 12.8,20.4C7.6,21.7 3.8,23.7 -1.8,26.9C-7.4,30.1 -14.9,34.4 -19.5,32.7C-24.1,31.1 -25.9,23.5 -25.9,17.1C-26,10.6 -24.3,5.3 -24.9,-0.4C-25.6,-6.1 -28.6,-12.1 -27.7,-17.1C-26.8,-22.1 -22,-26 -16.7,-29.8C-11.5,-33.6 -5.7,-37.3 0.5,-38.2C6.7,-39.1 13.5,-37.1 16.8,-32.1Z" style="fill:url(#_Linear21);fill-rule:nonzero;stroke:white;stroke-opacity:0.66;stroke-width:0.02px;"/></g><g transform="matrix(106.619,0,0,20.0813,1727.49,5391.34)"><path d="M16.8,-32.1C20,-27.2 19.8,-19.2 21.1,-13.4C22.3,-7.6 24.9,-3.8 26.9,1.2C28.9,6.1 30.2,12.2 27.5,15.4C24.8,18.7 18.1,19.2 12.8,20.4C7.6,21.7 3.8,23.7 -1.8,26.9C-7.4,30.1 -14.9,34.4 -19.5,32.7C-24.1,31.1 -25.9,23.5 -25.9,17.1C-26,10.6 -24.3,5.3 -24.9,-0.4C-25.6,-6.1 -28.6,-12.1 -27.7,-17.1C-26.8,-22.1 -22,-26 -16.7,-29.8C-11.5,-33.6 -5.7,-37.3 0.5,-38.2C6.7,-39.1 13.5,-37.1 16.8,-32.1Z" style="fill:url(#_Linear22);fill-rule:nonzero;stroke:white;stroke-opacity:0.66;stroke-width:0.02px;"/></g><g transform="matrix(106.619,0,0,20.0813,1581.63,5482.66)"><path d="M16.8,-32.1C20,-27.2 19.8,-19.2 21.1,-13.4C22.3,-7.6 24.9,-3.8 26.9,1.2C28.9,6.1 30.2,12.2 27.5,15.4C24.8,18.7 18.1,19.2 12.8,20.4C7.6,21.7 3.8,23.7 -1.8,26.9C-7.4,30.1 -14.9,34.4 -19.5,32.7C-24.1,31.1 -25.9,23.5 -25.9,17.1C-26,10.6 -24.3,5.3 -24.9,-0.4C-25.6,-6.1 -28.6,-12.1 -27.7,-17.1C-26.8,-22.1 -22,-26 -16.7,-29.8C-11.5,-33.6 -5.7,-37.3 0.5,-38.2C6.7,-39.1 13.5,-37.1 16.8,-32.1Z" style="fill:url(#_Linear23);fill-rule:nonzero;stroke:white;stroke-opacity:0.66;stroke-width:0.02px;"/></g><g transform="matrix(106.619,0,0,20.0813,1435.77,5573.98)"><path d="M16.8,-32.1C20,-27.2 19.8,-19.2 21.1,-13.4C22.3,-7.6 24.9,-3.8 26.9,1.2C28.9,6.1 30.2,12.2 27.5,15.4C24.8,18.7 18.1,19.2 12.8,20.4C7.6,21.7 3.8,23.7 -1.8,26.9C-7.4,30.1 -14.9,34.4 -19.5,32.7C-24.1,31.1 -25.9,23.5 -25.9,17.1C-26,10.6 -24.3,5.3 -24.9,-0.4C-25.6,-6.1 -28.6,-12.1 -27.7,-17.1C-26.8,-22.1 -22,-26 -16.7,-29.8C-11.5,-33.6 -5.7,-37.3 0.5,-38.2C6.7,-39.1 13.5,-37.1 16.8,-32.1Z" style="fill:url(#_Linear24);fill-rule:nonzero;stroke:white;stroke-opacity:0.66;stroke-width:0.02px;"/></g><g transform="matrix(106.619,0,0,20.0813,1289.91,5665.3)"><path d="M16.8,-32.1C20,-27.2 19.8,-19.2 21.1,-13.4C22.3,-7.6 24.9,-3.8 26.9,1.2C28.9,6.1 30.2,12.2 27.5,15.4C24.8,18.7 18.1,19.2 12.8,20.4C7.6,21.7 3.8,23.7 -1.8,26.9C-7.4,30.1 -14.9,34.4 -19.5,32.7C-24.1,31.1 -25.9,23.5 -25.9,17.1C-26,10.6 -24.3,5.3 -24.9,-0.4C-25.6,-6.1 -28.6,-12.1 -27.7,-17.1C-26.8,-22.1 -22,-26 -16.7,-29.8C-11.5,-33.6 -5.7,-37.3 0.5,-38.2C6.7,-39.1 13.5,-37.1 16.8,-32.1Z" style="fill:url(#_Linear25);fill-rule:nonzero;stroke:white;stroke-opacity:0.66;stroke-width:0.02px;"/></g><g transform="matrix(106.619,0,0,20.0813,1144.05,5756.62)"><path d="M16.8,-32.1C20,-27.2 19.8,-19.2 21.1,-13.4C22.3,-7.6 24.9,-3.8 26.9,1.2C28.9,6.1 30.2,12.2 27.5,15.4C24.8,18.7 18.1,19.2 12.8,20.4C7.6,21.7 3.8,23.7 -1.8,26.9C-7.4,30.1 -14.9,34.4 -19.5,32.7C-24.1,31.1 -25.9,23.5 -25.9,17.1C-26,10.6 -24.3,5.3 -24.9,-0.4C-25.6,-6.1 -28.6,-12.1 -27.7,-17.1C-26.8,-22.1 -22,-26 -16.7,-29.8C-11.5,-33.6 -5.7,-37.3 0.5,-38.2C6.7,-39.1 13.5,-37.1 16.8,-32.1Z" style="fill:url(#_Linear26);fill-rule:nonzero;stroke:white;stroke-opacity:0.66;stroke-width:0.02px;"/></g><g transform="matrix(106.619,0,0,20.0813,998.19,5847.94)"><path d="M16.8,-32.1C20,-27.2 19.8,-19.2 21.1,-13.4C22.3,-7.6 24.9,-3.8 26.9,1.2C28.9,6.1 30.2,12.2 27.5,15.4C24.8,18.7 18.1,19.2 12.8,20.4C7.6,21.7 3.8,23.7 -1.8,26.9C-7.4,30.1 -14.9,34.4 -19.5,32.7C-24.1,31.1 -25.9,23.5 -25.9,17.1C-26,10.6 -24.3,5.3 -24.9,-0.4C-25.6,-6.1 -28.6,-12.1 -27.7,-17.1C-26.8,-22.1 -22,-26 -16.7,-29.8C-11.5,-33.6 -5.7,-37.3 0.5,-38.2C6.7,-39.1 13.5,-37.1 16.8,-32.1Z" style="fill:url(#_Linear27);fill-rule:nonzero;stroke:white;stroke-opacity:0.66;stroke-width:0.02px;"/></g><g transform="matrix(106.619,0,0,20.0813,852.33,5939.26)"><path d="M16.8,-32.1C20,-27.2 19.8,-19.2 21.1,-13.4C22.3,-7.6 24.9,-3.8 26.9,1.2C28.9,6.1 30.2,12.2 27.5,15.4C24.8,18.7 18.1,19.2 12.8,20.4C7.6,21.7 3.8,23.7 -1.8,26.9C-7.4,30.1 -14.9,34.4 -19.5,32.7C-24.1,31.1 -25.9,23.5 -25.9,17.1C-26,10.6 -24.3,5.3 -24.9,-0.4C-25.6,-6.1 -28.6,-12.1 -27.7,-17.1C-26.8,-22.1 -22,-26 -16.7,-29.8C-11.5,-33.6 -5.7,-37.3 0.5,-38.2C6.7,-39.1 13.5,-37.1 16.8,-32.1Z" style="fill:url(#_Linear28);fill-rule:nonzero;stroke:white;stroke-opacity:0.66;stroke-width:0.02px;"/></g><g transform="matrix(106.619,0,0,20.0813,706.47,6030.58)"><path d="M16.8,-32.1C20,-27.2 19.8,-19.2 21.1,-13.4C22.3,-7.6 24.9,-3.8 26.9,1.2C28.9,6.1 30.2,12.2 27.5,15.4C24.8,18.7 18.1,19.2 12.8,20.4C7.6,21.7 3.8,23.7 -1.8,26.9C-7.4,30.1 -14.9,34.4 -19.5,32.7C-24.1,31.1 -25.9,23.5 -25.9,17.1C-26,10.6 -24.3,5.3 -24.9,-0.4C-25.6,-6.1 -28.6,-12.1 -27.7,-17.1C-26.8,-22.1 -22,-26 -16.7,-29.8C-11.5,-33.6 -5.7,-37.3 0.5,-38.2C6.7,-39.1 13.5,-37.1 16.8,-32.1Z" style="fill:url(#_Linear29);fill-rule:nonzero;stroke:white;stroke-opacity:0.66;stroke-width:0.02px;"/></g><g transform="matrix(106.619,0,0,20.0813,560.61,6121.9)"><path d="M16.8,-32.1C20,-27.2 19.8,-19.2 21.1,-13.4C22.3,-7.6 24.9,-3.8 26.9,1.2C28.9,6.1 30.2,12.2 27.5,15.4C24.8,18.7 18.1,19.2 12.8,20.4C7.6,21.7 3.8,23.7 -1.8,26.9C-7.4,30.1 -14.9,34.4 -19.5,32.7C-24.1,31.1 -25.9,23.5 -25.9,17.1C-26,10.6 -24.3,5.3 -24.9,-0.4C-25.6,-6.1 -28.6,-12.1 -27.7,-17.1C-26.8,-22.1 -22,-26 -16.7,-29.8C-11.5,-33.6 -5.7,-37.3 0.5,-38.2C6.7,-39.1 13.5,-37.1 16.8,-32.1Z" style="fill:url(#_Linear30);fill-rule:nonzero;stroke:white;stroke-opacity:0.66;stroke-width:0.02px;"/></g><g transform="matrix(106.619,0,0,20.0813,414.749,6213.22)"><path d="M16.8,-32.1C20,-27.2 19.8,-19.2 21.1,-13.4C22.3,-7.6 24.9,-3.8 26.9,1.2C28.9,6.1 30.2,12.2 27.5,15.4C24.8,18.7 18.1,19.2 12.8,20.4C7.6,21.7 3.8,23.7 -1.8,26.9C-7.4,30.1 -14.9,34.4 -19.5,32.7C-24.1,31.1 -25.9,23.5 -25.9,17.1C-26,10.6 -24.3,5.3 -24.9,-0.4C-25.6,-6.1 -28.6,-12.1 -27.7,-17.1C-26.8,-22.1 -22,-26 -16.7,-29.8C-11.5,-33.6 -5.7,-37.3 0.5,-38.2C6.7,-39.1 13.5,-37.1 16.8,-32.1Z" style="fill:url(#_Linear31);fill-rule:nonzero;stroke:white;stroke-opacity:0.66;stroke-width:0.02px;"/></g><g transform="matrix(106.619,0,0,20.0813,268.889,6304.54)"><path d="M16.8,-32.1C20,-27.2 19.8,-19.2 21.1,-13.4C22.3,-7.6 24.9,-3.8 26.9,1.2C28.9,6.1 30.2,12.2 27.5,15.4C24.8,18.7 18.1,19.2 12.8,20.4C7.6,21.7 3.8,23.7 -1.8,26.9C-7.4,30.1 -14.9,34.4 -19.5,32.7C-24.1,31.1 -25.9,23.5 -25.9,17.1C-26,10.6 -24.3,5.3 -24.9,-0.4C-25.6,-6.1 -28.6,-12.1 -27.7,-17.1C-26.8,-22.1 -22,-26 -16.7,-29.8C-11.5,-33.6 -5.7,-37.3 0.5,-38.2C6.7,-39.1 13.5,-37.1 16.8,-32.1Z" style="fill:url(#_Linear32);fill-rule:nonzero;stroke:white;stroke-opacity:0.66;stroke-width:0.02px;"/></g></g></g></g></g><defs><linearGradient id="_Linear2" x1="0" y1="0" x2="1" y2="0" gradientUnits="userSpaceOnUse" gradientTransform="matrix(56.8983,-71.4936,71.4936,56.8983,-27.8669,33.0845)"><stop offset="0" style="stop-color:rgb(76,76,76);stop-opacity:0"/><stop offset="1" style="stop-color:rgb(199,199,199);stop-opacity:0"/></linearGradient><linearGradient id="_Linear3" x1="0" y1="0" x2="1" y2="0" gradientUnits="userSpaceOnUse" gradientTransform="matrix(56.8983,-71.4936,71.4936,56.8983,-27.8669,33.0845)"><stop offset="0" style="stop-color:rgb(76,76,76);stop-opacity:0"/><stop offset="1" style="stop-color:rgb(199,199,199);stop-opacity:0"/></linearGradient><linearGradient id="_Linear4" x1="0" y1="0" x2="1" y2="0" gradientUnits="userSpaceOnUse" gradientTransform="matrix(56.8983,-71.4936,71.4936,56.8983,-27.8669,33.0845)"><stop offset="0" style="stop-color:rgb(76,76,76);stop-opacity:0"/><stop offset="1" style="stop-color:rgb(199,199,199);stop-opacity:0"/></linearGradient><linearGradient id="_Linear5" x1="0" y1="0" x2="1" y2="0" gradientUnits="userSpaceOnUse" gradientTransform="matrix(56.8983,-71.4936,71.4936,56.8983,-27.8669,33.0845)"><stop offset="0" style="stop-color:rgb(76,76,76);stop-opacity:0"/><stop offset="1" style="stop-color:rgb(199,199,199);stop-opacity:0"/></linearGradient><linearGradient id="_Linear6" x1="0" y1="0" x2="1" y2="0" gradientUnits="userSpaceOnUse" gradientTransform="matrix(56.8983,-71.4936,71.4936,56.8983,-27.8669,33.0845)"><stop offset="0" style="stop-color:rgb(76,76,76);stop-opacity:0"/><stop offset="1" style="stop-color:rgb(199,199,199);stop-opacity:0"/></linearGradient><linearGradient id="_Linear7" x1="0" y1="0" x2="1" y2="0" gradientUnits="userSpaceOnUse" gradientTransform="matrix(56.8983,-71.4936,71.4936,56.8983,-27.8669,33.0845)"><stop offset="0" style="stop-color:rgb(76,76,76);stop-opacity:0"/><stop offset="1" style="stop-color:rgb(199,199,199);stop-opacity:0"/></linearGradient><linearGradient id="_Linear8" x1="0" y1="0" x2="1" y2="0" gradientUnits="userSpaceOnUse" gradientTransform="matrix(56.8983,-71.4936,71.4936,56.8983,-27.8669,33.0845)"><stop offset="0" style="stop-color:rgb(76,76,76);stop-opacity:0"/><stop offset="1" style="stop-color:rgb(199,199,199);stop-opacity:0"/></linearGradient><linearGradient id="_Linear9" x1="0" y1="0" x2="1" y2="0" gradientUnits="userSpaceOnUse" gradientTransform="matrix(56.8983,-71.4936,71.4936,56.8983,-27.8669,33.0845)"><stop offset="0" style="stop-color:rgb(76,76,76);stop-opacity:0"/><stop offset="1" style="stop-color:rgb(199,199,199);stop-opacity:0"/></linearGradient><linearGradient id="_Linear10" x1="0" y1="0" x2="1" y2="0" gradientUnits="userSpaceOnUse" gradientTransform="matrix(56.8983,-71.4936,71.4936,56.8983,-27.8669,33.0845)"><stop offset="0" style="stop-color:rgb(76,76,76);stop-opacity:0"/><stop offset="1" style="stop-color:rgb(199,199,199);stop-opacity:0"/></linearGradient><linearGradient id="_Linear11" x1="0" y1="0" x2="1" y2="0" gradientUnits="userSpaceOnUse" gradientTransform="matrix(56.8983,-71.4936,71.4936,56.8983,-27.8669,33.0845)"><stop offset="0" style="stop-color:rgb(76,76,76);stop-opacity:0"/><stop offset="1" style="stop-color:rgb(199,199,199);stop-opacity:0"/></linearGradient><linearGradient id="_Linear12" x1="0" y1="0" x2="1" y2="0" gradientUnits="userSpaceOnUse" gradientTransform="matrix(56.8983,-71.4936,71.4936,56.8983,-27.8669,33.0845)"><stop offset="0" style="stop-color:rgb(76,76,76);stop-opacity:0"/><stop offset="1" style="stop-color:rgb(199,199,199);stop-opacity:0"/></linearGradient><linearGradient id="_Linear13" x1="0" y1="0" x2="1" y2="0" gradientUnits="userSpaceOnUse" gradientTransform="matrix(56.8983,-71.4936,71.4936,56.8983,-27.8669,33.0845)"><stop offset="0" style="stop-color:rgb(76,76,76);stop-opacity:0"/><stop offset="1" style="stop-color:rgb(199,199,199);stop-opacity:0"/></linearGradient><linearGradient id="_Linear14" x1="0" y1="0" x2="1" y2="0" gradientUnits="userSpaceOnUse" gradientTransform="matrix(56.8983,-71.4936,71.4936,56.8983,-27.8669,33.0845)"><stop offset="0" style="stop-color:rgb(76,76,76);stop-opacity:0"/><stop offset="1" style="stop-color:rgb(199,199,199);stop-opacity:0"/></linearGradient><linearGradient id="_Linear15" x1="0" y1="0" x2="1" y2="0" gradientUnits="userSpaceOnUse" gradientTransform="matrix(56.8983,-71.4936,71.4936,56.8983,-27.8669,33.0845)"><stop offset="0" style="stop-color:rgb(76,76,76);stop-opacity:0"/><stop offset="1" style="stop-color:rgb(199,199,199);stop-opacity:0"/></linearGradient><linearGradient id="_Linear16" x1="0" y1="0" x2="1" y2="0" gradientUnits="userSpaceOnUse" gradientTransform="matrix(56.8983,-71.4936,71.4936,56.8983,-27.8669,33.0845)"><stop offset="0" style="stop-color:rgb(76,76,76);stop-opacity:0"/><stop offset="1" style="stop-color:rgb(199,199,199);stop-opacity:0"/></linearGradient><linearGradient id="_Linear17" x1="0" y1="0" x2="1" y2="0" gradientUnits="userSpaceOnUse" gradientTransform="matrix(56.8983,-71.4936,71.4936,56.8983,-27.8669,33.0845)"><stop offset="0" style="stop-color:rgb(76,76,76);stop-opacity:0"/><stop offset="1" style="stop-color:rgb(199,199,199);stop-opacity:0"/></linearGradient><linearGradient id="_Linear18" x1="0" y1="0" x2="1" y2="0" gradientUnits="userSpaceOnUse" gradientTransform="matrix(56.8983,-71.4936,71.4936,56.8983,-27.8669,33.0845)"><stop offset="0" style="stop-color:rgb(76,76,76);stop-opacity:0"/><stop offset="1" style="stop-color:rgb(199,199,199);stop-opacity:0"/></linearGradient><linearGradient id="_Linear19" x1="0" y1="0" x2="1" y2="0" gradientUnits="userSpaceOnUse" gradientTransform="matrix(56.8983,-71.4936,71.4936,56.8983,-27.8669,33.0845)"><stop offset="0" style="stop-color:rgb(76,76,76);stop-opacity:0"/><stop offset="1" style="stop-color:rgb(199,199,199);stop-opacity:0"/></linearGradient><linearGradient id="_Linear20" x1="0" y1="0" x2="1" y2="0" gradientUnits="userSpaceOnUse" gradientTransform="matrix(56.8983,-71.4936,71.4936,56.8983,-27.8669,33.0845)"><stop offset="0" style="stop-color:rgb(76,76,76);stop-opacity:0"/><stop offset="1" style="stop-color:rgb(199,199,199);stop-opacity:0"/></linearGradient><linearGradient id="_Linear21" x1="0" y1="0" x2="1" y2="0" gradientUnits="userSpaceOnUse" gradientTransform="matrix(56.8983,-71.4936,71.4936,56.8983,-27.8669,33.0845)"><stop offset="0" style="stop-color:rgb(76,76,76);stop-opacity:0"/><stop offset="1" style="stop-color:rgb(199,199,199);stop-opacity:0"/></linearGradient><linearGradient id="_Linear22" x1="0" y1="0" x2="1" y2="0" gradientUnits="userSpaceOnUse" gradientTransform="matrix(56.8983,-71.4936,71.4936,56.8983,-27.8669,33.0845)"><stop offset="0" style="stop-color:rgb(76,76,76);stop-opacity:0"/><stop offset="1" style="stop-color:rgb(199,199,199);stop-opacity:0"/></linearGradient><linearGradient id="_Linear23" x1="0" y1="0" x2="1" y2="0" gradientUnits="userSpaceOnUse" gradientTransform="matrix(56.8983,-71.4936,71.4936,56.8983,-27.8669,33.0845)"><stop offset="0" style="stop-color:rgb(76,76,76);stop-opacity:0"/><stop offset="1" style="stop-color:rgb(199,199,199);stop-opacity:0"/></linearGradient><linearGradient id="_Linear24" x1="0" y1="0" x2="1" y2="0" gradientUnits="userSpaceOnUse" gradientTransform="matrix(56.8983,-71.4936,71.4936,56.8983,-27.8669,33.0845)"><stop offset="0" style="stop-color:rgb(76,76,76);stop-opacity:0"/><stop offset="1" style="stop-color:rgb(199,199,199);stop-opacity:0"/></linearGradient><linearGradient id="_Linear25" x1="0" y1="0" x2="1" y2="0" gradientUnits="userSpaceOnUse" gradientTransform="matrix(56.8983,-71.4936,71.4936,56.8983,-27.8669,33.0845)"><stop offset="0" style="stop-color:rgb(76,76,76);stop-opacity:0"/><stop offset="1" style="stop-color:rgb(199,199,199);stop-opacity:0"/></linearGradient><linearGradient id="_Linear26" x1="0" y1="0" x2="1" y2="0" gradientUnits="userSpaceOnUse" gradientTransform="matrix(56.8983,-71.4936,71.4936,56.8983,-27.8669,33.0845)"><stop offset="0" style="stop-color:rgb(76,76,76);stop-opacity:0"/><stop offset="1" style="stop-color:rgb(199,199,199);stop-opacity:0"/></linearGradient><linearGradient id="_Linear27" x1="0" y1="0" x2="1" y2="0" gradientUnits="userSpaceOnUse" gradientTransform="matrix(56.8983,-71.4936,71.4936,56.8983,-27.8669,33.0845)"><stop offset="0" style="stop-color:rgb(76,76,76);stop-opacity:0"/><stop offset="1" style="stop-color:rgb(199,199,199);stop-opacity:0"/></linearGradient><linearGradient id="_Linear28" x1="0" y1="0" x2="1" y2="0" gradientUnits="userSpaceOnUse" gradientTransform="matrix(56.8983,-71.4936,71.4936,56.8983,-27.8669,33.0845)"><stop offset="0" style="stop-color:rgb(76,76,76);stop-opacity:0"/><stop offset="1" style="stop-color:rgb(199,199,199);stop-opacity:0"/></linearGradient><linearGradient id="_Linear29" x1="0" y1="0" x2="1" y2="0" gradientUnits="userSpaceOnUse" gradientTransform="matrix(56.8983,-71.4936,71.4936,56.8983,-27.8669,33.0845)"><stop offset="0" style="stop-color:rgb(76,76,76);stop-opacity:0"/><stop offset="1" style="stop-color:rgb(199,199,199);stop-opacity:0"/></linearGradient><linearGradient id="_Linear30" x1="0" y1="0" x2="1" y2="0" gradientUnits="userSpaceOnUse" gradientTransform="matrix(56.8983,-71.4936,71.4936,56.8983,-27.8669,33.0845)"><stop offset="0" style="stop-color:rgb(76,76,76);stop-opacity:0"/><stop offset="1" style="stop-color:rgb(199,199,199);stop-opacity:0"/></linearGradient><linearGradient id="_Linear31" x1="0" y1="0" x2="1" y2="0" gradientUnits="userSpaceOnUse" gradientTransform="matrix(56.8983,-71.4936,71.4936,56.8983,-27.8669,33.0845)"><stop offset="0" style="stop-color:rgb(76,76,76);stop-opacity:0"/><stop offset="1" style="stop-color:rgb(199,199,199);stop-opacity:0"/></linearGradient><linearGradient id="_Linear32" x1="0" y1="0" x2="1" y2="0" gradientUnits="userSpaceOnUse" gradientTransform="matrix(56.8983,-71.4936,71.4936,56.8983,-27.8669,33.0845)"><stop offset="0" style="stop-color:rgb(76,76,76);stop-opacity:0"/><stop offset="1" style="stop-color:rgb(199,199,199);stop-opacity:0"/></linearGradient></defs></svg>